<?xml version="1.0" standalone="no"?>
<!DOCTYPE svg PUBLIC "-//W3C//DTD SVG 20010904//EN"
 "http://www.w3.org/TR/2001/REC-SVG-20010904/DTD/svg10.dtd">
<svg version="1.0" xmlns="http://www.w3.org/2000/svg"
 width="8333.000000pt" height="8333.000000pt" viewBox="0 0 8333.000000 8333.000000"
 preserveAspectRatio="xMidYMid meet">

<g transform="translate(0.000000,8333.000000) scale(0.100000,-0.100000)"
fill="#000000" stroke="none">
<path d="M46565 77503 c-28 -10 -66 -31 -86 -46 -58 -44 -246 -315 -421 -607
-1067 -1775 -1441 -4132 -1087 -6860 130 -1005 361 -2053 645 -2922 52 -159
72 -206 103 -245 103 -131 307 -152 432 -45 47 40 185 244 299 442 96 168 292
561 368 741 631 1489 851 3237 596 4748 -32 193 -83 420 -155 688 -209 779
-310 1481 -341 2367 -13 370 -2 849 28 1161 28 309 29 333 4 399 -27 71 -90
138 -158 168 -65 29 -163 33 -227 11z m-450 -3308 c26 -157 75 -410 114 -590
19 -87 80 -329 155 -614 263 -993 243 -2295 -55 -3506 -64 -260 -178 -640
-189 -628 -6 7 -21 79 -69 343 -124 670 -194 1246 -241 1965 -18 265 -24 1003
-11 1280 29 622 88 1117 196 1645 43 212 64 294 71 275 2 -5 15 -82 29 -170z"/>
<path d="M53535 69771 c-93 -24 -171 -89 -211 -174 -27 -58 -32 -146 -14 -252
22 -132 51 -460 60 -687 11 -262 1 -593 -25 -858 -103 -1040 -457 -2125 -1129
-3468 -135 -269 -209 -443 -280 -656 -119 -357 -195 -750 -226 -1161 -13 -178
-13 -636 0 -825 47 -675 205 -1411 436 -2035 29 -76 122 -166 198 -189 116
-36 246 0 327 92 173 196 496 681 737 1107 516 915 994 2129 1261 3200 202
813 244 1690 126 2633 -115 914 -381 1885 -758 2764 -155 360 -207 443 -309
488 -52 22 -147 33 -193 21z m369 -4321 c-2 -421 -23 -684 -84 -1020 -109
-607 -474 -1713 -791 -2398 -16 -34 -29 -65 -29 -68 0 -6 -279 -576 -286 -583
-10 -11 -16 16 -29 130 -74 658 -27 1300 131 1802 15 45 27 87 28 92 2 6 9 26
18 45 8 19 23 60 33 90 22 68 62 153 249 532 80 163 146 299 146 302 0 2 22
51 49 108 170 360 356 824 507 1263 19 55 37 107 41 115 15 33 19 -69 17 -410z"/>
<path d="M41615 67763 c-62 -22 -114 -62 -149 -111 -53 -77 -55 -92 -59 -577
-5 -476 -15 -632 -63 -965 -137 -960 -464 -1780 -1013 -2545 -522 -728 -1264
-1404 -2297 -2092 -622 -415 -1087 -693 -2402 -1432 -265 -149 -571 -324 -680
-387 -1022 -603 -1912 -1248 -2712 -1968 -189 -169 -694 -676 -835 -837 l-110
-126 -3 71 c-7 162 39 578 94 840 161 768 466 1517 918 2251 43 70 56 112 56
182 0 155 -122 286 -280 300 -72 7 -127 -9 -328 -94 -335 -142 -885 -434
-1257 -668 -2157 -1356 -4143 -3484 -5732 -6145 -734 -1229 -1293 -2381 -1648
-3395 -36 -104 -74 -211 -83 -236 l-17 -46 -687 187 c-679 185 -688 188 -730
226 -24 21 -400 389 -836 819 -443 437 -810 790 -832 802 -69 37 -143 48 -215
30 -136 -34 -611 -353 -970 -653 -247 -206 -566 -534 -746 -764 -138 -178
-303 -436 -361 -566 -32 -73 -30 -175 5 -245 17 -35 259 -327 681 -823 l654
-770 -36 -51 c-127 -176 -328 -444 -333 -445 -4 0 -215 120 -470 266 -255 146
-479 272 -499 281 -49 21 -165 21 -215 -1 -99 -42 -40 32 -846 -1061 -215
-291 -432 -586 -483 -655 -51 -69 -295 -399 -543 -735 -574 -778 -1186 -1608
-1607 -2178 -343 -465 -418 -566 -947 -1284 -174 -235 -407 -552 -519 -703
-112 -151 -296 -401 -410 -555 -113 -154 -417 -566 -675 -915 -258 -349 -536
-727 -619 -839 -85 -116 -163 -211 -179 -220 -150 -83 -316 -228 -419 -365
-76 -102 -169 -293 -202 -416 -80 -298 -53 -607 79 -883 61 -130 132 -227 258
-352 l120 -120 1392 -2010 c765 -1105 2131 -3079 3035 -4385 904 -1306 1652
-2388 1663 -2403 l19 -28 -90 -93 c-102 -106 -207 -244 -277 -364 l-48 -82
-417 0 c-467 0 -483 -2 -567 -68 -27 -22 -61 -62 -78 -93 l-30 -54 -3 -668 -3
-667 -822 0 c-903 0 -940 -2 -1096 -59 -169 -62 -320 -170 -428 -305 -155
-197 -223 -420 -210 -691 8 -152 35 -262 97 -391 132 -274 376 -463 674 -525
88 -18 201 -19 3514 -19 2172 0 3422 -3 3422 -10 0 -5 -63 -233 -141 -507 -77
-274 -171 -608 -209 -743 -260 -921 -574 -2034 -724 -2565 -57 -203 -210 -746
-340 -1205 -196 -697 -485 -1722 -866 -3070 -38 -135 -181 -643 -319 -1130
-137 -487 -274 -973 -305 -1080 -30 -107 -154 -548 -276 -980 -240 -850 -262
-928 -403 -1430 -52 -184 -147 -519 -211 -745 -143 -507 -413 -1465 -507
-1800 -39 -137 -118 -416 -176 -620 -117 -412 -125 -460 -85 -547 51 -115 240
-319 398 -430 145 -102 324 -179 484 -208 83 -15 256 -15 340 0 182 31 400
130 477 214 52 57 50 52 162 396 69 214 411 1275 543 1685 49 154 114 354 143
445 30 91 99 305 153 475 55 171 143 443 196 605 215 669 415 1288 591 1835
103 319 235 731 295 915 182 563 302 935 455 1410 169 524 244 759 533 1655
116 358 231 715 257 795 98 306 241 748 340 1055 57 176 167 518 245 760 78
242 234 726 346 1075 113 349 246 761 295 915 146 453 204 626 206 618 2 -4
37 -255 78 -558 915 -6670 1659 -11712 1860 -12615 33 -149 50 -199 95 -290
78 -155 182 -263 315 -326 113 -54 182 -67 320 -62 104 4 134 10 230 42 171
58 334 152 491 285 84 72 119 121 139 197 14 55 5 152 -320 3313 -185 1791
-353 3432 -375 3646 -122 1178 -571 5545 -635 6165 -197 1917 -245 2383 -245
2401 0 19 29 19 2093 19 l2092 0 145 -131 c267 -241 700 -601 1283 -1068 1306
-1045 2439 -1858 3360 -2410 103 -62 187 -116 187 -119 0 -4 -7 -56 -15 -117
-17 -128 -20 -414 -5 -535 49 -396 194 -726 425 -969 202 -212 383 -305 796
-410 780 -199 2085 -336 4141 -437 l138 -7 39 -62 40 -62 -24 -138 c-72 -410
-97 -666 -101 -1065 l-4 -345 -143 -7 c-386 -20 -796 -72 -974 -124 -289 -84
-462 -293 -463 -558 0 -204 104 -415 313 -633 118 -122 218 -206 279 -233 38
-17 193 -34 969 -107 l924 -87 80 -71 c343 -303 747 -495 1149 -545 156 -20
344 -7 499 35 l27 7 -2 -923 -3 -922 -1615 -849 c-888 -467 -1685 -885 -1770
-930 -291 -151 -318 -168 -364 -219 -64 -72 -80 -126 -79 -280 2 -329 122
-620 325 -788 75 -62 236 -143 332 -166 161 -39 406 -35 497 7 30 14 719 399
1532 857 1047 589 1484 830 1498 826 18 -6 19 -32 21 -928 l3 -922 24 -53 c15
-32 44 -71 78 -102 90 -82 81 -81 669 -78 l509 3 51 27 c63 33 126 103 151
166 17 44 18 107 21 964 3 870 4 917 21 923 11 3 518 -277 1519 -839 854 -481
1524 -852 1554 -861 73 -21 298 -21 403 0 333 69 560 285 659 626 33 114 49
255 45 386 -4 94 -8 116 -32 165 -16 32 -47 74 -70 94 -23 20 -245 142 -492
272 -248 131 -1077 566 -1843 967 l-1391 730 -1 913 c0 601 3 912 10 912 5 0
52 -7 102 -16 123 -21 332 -15 482 16 217 43 482 148 676 267 96 59 278 195
356 267 l62 56 368 35 c203 19 630 59 949 89 375 36 596 60 624 71 122 43 379
299 493 492 57 96 107 241 115 332 8 95 -11 192 -57 287 -31 64 -54 95 -114
152 -89 84 -153 123 -257 156 -180 58 -579 111 -974 131 -66 3 -147 8 -180 11
l-60 5 3 247 c5 358 -25 704 -97 1130 l-27 163 37 63 38 63 173 7 c479 19
1279 68 1808 111 1538 126 2508 299 2882 516 346 201 592 595 679 1084 31 172
34 508 6 685 -35 224 -102 454 -192 660 -35 79 -42 106 -33 112 7 5 40 23 73
40 121 62 515 283 715 401 1155 680 2334 1542 3377 2470 l132 117 2601 0 2600
0 0 -24 c0 -22 -133 -1322 -425 -4156 -41 -399 -167 -1623 -280 -2720 -303
-2946 -333 -3237 -590 -5735 -130 -1259 -249 -2415 -264 -2567 -21 -199 -26
-290 -20 -323 15 -80 57 -142 144 -215 173 -144 316 -227 490 -286 96 -32 126
-38 230 -42 138 -5 207 8 320 62 168 79 294 233 364 441 127 380 534 3013
1266 8190 192 1362 558 3990 680 4885 20 146 37 270 39 275 1 6 12 -19 24 -55
11 -36 64 -200 117 -365 53 -165 123 -381 155 -480 32 -99 97 -301 145 -450
48 -148 159 -493 247 -765 231 -717 334 -1037 442 -1370 52 -162 118 -367 146
-455 28 -88 117 -362 197 -610 79 -247 213 -664 298 -925 84 -261 260 -806
390 -1210 130 -404 285 -886 345 -1070 60 -184 195 -603 300 -930 106 -327
256 -795 335 -1040 79 -245 189 -587 245 -760 56 -173 143 -445 195 -605 113
-348 491 -1521 545 -1690 21 -66 131 -406 244 -755 112 -349 232 -719 265
-822 69 -215 80 -239 130 -291 70 -74 273 -166 448 -202 101 -21 284 -22 384
-1 234 49 441 162 630 343 112 108 198 215 230 288 44 97 39 124 -125 700
-137 483 -192 677 -331 1170 -97 342 -529 1876 -715 2535 -100 355 -208 737
-240 850 -32 113 -130 462 -219 775 -88 314 -266 946 -396 1405 -130 459 -420
1488 -645 2285 -1070 3795 -1357 4811 -1430 5070 -361 1279 -460 1630 -460
1637 0 4 1673 9 3718 10 l3717 3 80 23 c395 111 669 429 716 832 61 533 -243
983 -750 1108 -59 14 -222 17 -1472 22 l-1407 5 53 160 c29 88 191 579 360
1090 169 512 311 934 315 939 4 4 448 -36 987 -90 l978 -99 50 19 c97 36 165
133 165 232 0 96 0 96 -419 594 -292 346 -481 560 -613 691 -126 126 -193 169
-262 169 -47 0 -467 48 -473 54 -2 2 -11 50 -18 107 -19 135 -36 178 -91 228
-24 23 -44 43 -44 45 0 2 16 7 35 10 157 30 251 181 201 324 -21 58 -54 100
-101 127 -22 13 -211 90 -420 170 -209 80 -381 147 -382 149 -1 1 77 24 174
51 209 58 253 82 296 165 48 92 41 131 -108 565 -70 204 -169 494 -220 645
-51 151 -157 463 -235 693 -78 230 -140 420 -139 421 2 2 559 123 1238 270
679 147 1251 276 1270 286 75 38 130 127 131 211 0 110 -65 199 -180 244 -36
14 -184 73 -330 130 -146 57 -413 162 -595 233 -181 71 -591 232 -910 357
-319 125 -581 228 -583 230 -2 1 35 202 82 446 47 244 101 527 120 629 48 252
47 256 -110 447 -52 63 -93 117 -91 119 2 2 64 13 138 24 74 11 149 26 168 32
47 15 124 94 139 143 7 22 107 360 222 751 135 458 210 727 210 755 -1 82 -57
171 -132 210 -81 42 -674 175 -1128 253 -1323 228 -3296 372 -5365 392 -324 3
-600 7 -611 9 l-21 5 -6 637 c-7 822 -34 1304 -113 1998 -131 1155 -370 2184
-699 3015 -135 341 -289 649 -367 735 -139 153 -379 132 -484 -43 -23 -37 -43
-100 -74 -229 -250 -1048 -610 -1944 -1123 -2798 -450 -750 -1032 -1444 -1672
-1991 -66 -56 -133 -112 -148 -124 l-28 -22 14 33 c8 19 45 101 81 183 442
996 766 2131 915 3208 115 821 143 1713 80 2548 -171 2298 -1007 4591 -2376
6512 -761 1068 -1213 2351 -1349 3828 -23 252 -30 909 -13 1137 7 98 13 202
12 230 -3 77 -37 145 -99 202 -99 91 -187 101 -386 47 -617 -169 -1234 -504
-1798 -975 -476 -397 -924 -885 -1289 -1406 -46 -66 -88 -124 -91 -128 -11
-13 -465 376 -890 763 -914 833 -1885 1836 -2570 2655 -438 524 -789 1114
-1052 1770 -345 857 -535 1855 -527 2765 2 215 1 227 -21 278 -30 68 -112 144
-181 167 -68 23 -178 17 -234 -13 -22 -11 -125 -89 -230 -173 -104 -84 -434
-347 -732 -585 l-541 -432 -50 146 c-384 1129 -1315 2453 -2663 3787 -351 347
-499 481 -559 508 -63 28 -162 32 -225 10z m1084 -5360 c80 -466 311 -911 642
-1235 80 -78 197 -178 255 -218 12 -8 56 -39 98 -68 42 -29 123 -77 179 -106
103 -55 315 -146 352 -151 11 -1 34 -8 50 -14 50 -20 233 -61 340 -76 137 -19
355 -28 442 -17 l72 8 15 -35 c8 -20 40 -101 72 -181 31 -80 69 -172 84 -205
16 -33 49 -107 75 -165 68 -152 241 -496 316 -630 36 -63 68 -122 72 -130 10
-22 166 -274 215 -348 23 -35 42 -66 42 -69 0 -3 29 -46 64 -97 35 -50 78
-113 97 -141 18 -27 35 -52 38 -55 4 -3 26 -34 50 -70 38 -55 85 -118 148
-200 42 -54 222 -279 240 -300 134 -158 221 -259 239 -280 13 -14 31 -34 41
-46 37 -43 140 -159 189 -213 29 -31 68 -76 89 -101 20 -25 67 -77 104 -115
36 -39 79 -86 95 -105 15 -19 67 -76 115 -125 47 -50 115 -122 151 -160 335
-361 1126 -1155 1389 -1394 46 -42 123 -114 221 -206 52 -49 158 -146 234
-215 76 -69 144 -130 150 -135 67 -63 525 -458 676 -584 107 -89 217 -181 244
-204 115 -97 292 -226 304 -222 7 3 11 1 8 -4 -7 -11 31 -37 151 -105 303
-169 625 -264 968 -285 625 -38 1245 190 1697 625 l57 55 16 -38 c9 -21 23
-58 32 -83 23 -66 138 -357 164 -415 13 -27 24 -54 25 -60 1 -5 16 -41 33 -80
18 -38 44 -97 59 -130 74 -164 254 -523 323 -645 211 -373 361 -615 536 -863
272 -387 476 -714 680 -1092 82 -150 312 -621 383 -780 56 -128 78 -179 175
-418 17 -42 35 -74 40 -70 4 5 5 3 1 -4 -4 -7 22 -90 58 -185 299 -804 493
-1613 591 -2463 65 -564 72 -1281 20 -1860 -91 -991 -344 -1961 -763 -2925
-118 -272 -345 -729 -448 -901 -19 -31 -34 -59 -34 -62 0 -4 -14 -30 -32 -59
-153 -257 -245 -516 -302 -847 -4 -19 -11 -97 -16 -173 -21 -295 33 -651 144
-942 48 -127 194 -409 226 -436 3 -3 17 -22 30 -44 42 -69 160 -208 264 -311
103 -101 248 -225 265 -225 5 0 11 -4 13 -9 6 -16 220 -147 319 -194 328 -158
626 -226 984 -227 280 0 509 38 760 126 142 50 469 213 593 295 24 16 46 29
50 29 5 0 39 20 76 45 60 39 67 42 63 22 -3 -12 -153 -645 -332 -1407 -180
-762 -374 -1585 -433 -1830 -80 -334 -106 -461 -106 -510 l0 -65 272 -497
c150 -274 272 -501 272 -506 0 -5 -53 -56 -118 -114 -64 -58 -253 -243 -419
-411 -298 -301 -302 -305 -320 -285 -30 33 -164 142 -229 186 -124 83 -283
153 -448 197 -49 14 -91 26 -93 29 -3 3 26 47 64 98 402 542 701 975 771 1117
47 95 56 201 24 274 -38 87 -104 146 -707 632 -1087 878 -1709 1419 -2246
1955 -524 523 -821 909 -885 1148 -21 82 -28 267 -15 412 42 461 164 977 539
2295 275 963 392 1429 476 1890 135 739 120 1272 -44 1622 -91 194 -217 330
-414 445 -413 242 -744 464 -1096 736 -287 222 -692 574 -861 749 -73 75 -78
84 -129 213 -580 1472 -1431 3085 -2500 4740 -576 891 -1273 1853 -1884 2599
-374 457 -657 773 -1006 1122 -406 407 -682 633 -944 773 -566 304 -1789 120
-3351 -504 -121 -48 -266 -108 -323 -133 l-103 -46 -138 74 c-677 362 -1483
645 -2162 759 -441 75 -896 86 -1279 30 -673 -97 -1480 -489 -2343 -1138
-1958 -1470 -3670 -3844 -4792 -6641 -61 -154 -120 -303 -130 -332 -18 -50
-24 -56 -159 -149 -762 -527 -1483 -1168 -1914 -1702 -323 -400 -526 -790
-587 -1131 -116 -647 216 -2306 919 -4584 47 -153 86 -281 86 -285 0 -4 -33
-29 -73 -57 -142 -97 -627 -442 -897 -639 -1266 -920 -2035 -1573 -2282 -1937
-133 -196 -277 -756 -432 -1684 -88 -527 -186 -1239 -186 -1351 0 -92 25 -143
170 -343 368 -505 836 -1008 1310 -1405 306 -257 779 -578 893 -607 67 -16
150 -6 217 28 49 25 74 53 223 238 187 233 427 517 592 700 165 183 298 322
293 305 -196 -584 -421 -1451 -421 -1620 0 -84 29 -153 91 -212 61 -59 807
-583 869 -610 59 -26 149 -28 223 -4 48 16 70 34 169 135 l113 116 -5 -45
c-38 -318 -40 -349 -28 -404 15 -67 61 -137 116 -177 33 -24 377 -159 1072
-423 l72 -27 -21 -47 c-270 -621 -440 -1571 -373 -2092 105 -831 670 -1453
1630 -1796 l120 -43 -1821 0 -1821 -1 -241 238 c-132 130 -304 307 -383 392
-78 85 -172 187 -208 226 -36 39 -75 82 -86 95 -12 13 -54 62 -96 109 -41 47
-128 149 -193 227 -65 79 -123 143 -129 143 -5 0 -7 3 -4 7 4 4 -4 18 -17 32
-73 78 -459 583 -658 861 -130 182 -161 227 -293 420 l-79 115 73 815 c41 448
74 839 74 868 0 70 -43 156 -98 194 -97 67 -734 224 -1170 289 -82 12 -155 27
-162 33 -6 6 -78 143 -158 304 -163 328 -170 342 -402 842 -20 41 -58 127 -85
190 -28 63 -61 138 -73 165 -13 28 -56 127 -95 220 -40 94 -78 184 -85 200
-14 31 -64 151 -109 265 -15 36 -32 76 -38 90 -6 14 -12 27 -13 30 -2 13 -81
211 -101 258 -13 29 -24 55 -24 58 0 2 -7 21 -16 42 -10 20 -18 44 -20 52 -2
8 -7 23 -12 35 -6 11 -21 52 -35 90 -14 39 -48 129 -75 200 -27 72 -91 247
-141 390 -51 143 -103 289 -116 325 -53 147 -258 775 -317 970 -6 19 -13 40
-17 45 -3 6 -7 19 -8 30 -2 11 -16 61 -33 110 -41 129 -100 332 -100 348 0 10
26 20 78 30 371 79 741 268 1026 527 87 79 203 203 258 275 29 39 56 72 59 75
19 15 130 199 184 304 78 154 109 230 130 316 1 3 7 18 13 33 51 124 93 375
99 599 10 352 -35 600 -169 933 -33 83 -80 202 -105 265 -49 126 -207 593
-249 735 -14 50 -42 144 -61 210 -19 66 -68 249 -109 407 -386 1496 -543 3084
-459 4623 9 170 2 154 149 322 688 786 1184 1633 1483 2533 50 151 55 171 51
235 -8 114 -79 221 -174 261 -19 8 -199 59 -401 114 -203 56 -375 103 -384
105 -14 5 -11 19 18 103 64 183 186 496 258 662 20 47 38 90 39 95 1 6 17 41
34 79 18 38 32 70 32 73 0 2 17 40 39 86 21 45 53 114 71 152 73 157 376 757
413 816 8 13 37 67 65 119 76 145 218 401 243 440 9 14 30 50 46 80 25 46 187
322 242 412 107 176 160 261 185 300 17 25 53 81 80 125 54 85 388 587 462
693 113 162 508 698 524 710 3 3 55 68 115 145 101 131 304 379 384 470 20 23
59 67 86 100 28 33 57 66 65 75 8 8 33 37 54 63 22 26 42 44 46 40 4 -4 26
-43 50 -86 63 -118 143 -243 213 -332 78 -99 278 -303 377 -383 238 -192 560
-353 852 -426 428 -107 851 -92 1260 45 156 53 271 107 495 234 147 83 426
333 556 498 78 99 147 194 147 202 0 6 58 82 159 210 54 69 79 98 172 200 25
27 63 70 84 95 65 75 493 500 595 590 52 47 93 89 92 95 -2 5 0 7 4 3 4 -4 41
23 83 60 42 37 105 92 141 122 36 29 70 59 75 64 6 6 39 34 74 61 35 28 75 60
88 72 12 12 23 20 23 16 0 -3 17 10 38 29 22 20 140 110 263 202 123 92 232
174 242 182 9 8 19 14 22 14 2 0 53 35 112 78 60 42 182 126 273 186 91 59
183 121 205 136 22 15 108 69 190 120 83 51 174 108 202 126 29 19 55 34 58
34 3 0 22 11 43 23 63 40 534 310 747 428 28 15 93 52 145 83 52 30 112 63
133 72 20 9 37 20 37 25 0 5 5 9 11 9 6 0 49 22 97 48 186 104 498 284 512
296 8 7 24 16 34 20 39 14 801 474 974 588 41 26 75 48 77 48 13 0 735 482
775 518 8 6 60 44 115 82 55 39 111 79 125 90 14 10 68 50 120 89 52 40 102
77 110 84 9 7 54 41 100 77 110 84 393 313 445 359 22 20 69 61 104 91 36 30
69 60 75 65 6 6 49 44 96 85 432 380 967 958 1280 1383 36 48 85 113 109 145
24 31 91 128 149 215 58 86 109 157 113 157 4 0 12 -30 18 -67z m-3064 -7143
c617 -36 1281 -213 2010 -535 158 -70 505 -244 635 -319 178 -102 232 -102
469 3 616 272 1348 525 1892 655 644 154 1123 172 1376 52 353 -168 1012 -826
1799 -1796 643 -793 1346 -1773 1923 -2680 79 -124 154 -241 166 -260 32 -49
254 -411 340 -555 787 -1316 1413 -2579 1875 -3783 38 -99 79 -148 296 -354
581 -550 1274 -1074 1904 -1439 80 -46 162 -101 183 -122 44 -44 89 -133 111
-221 57 -219 45 -583 -34 -1046 -26 -152 -88 -451 -95 -458 -3 -3 -5 107 -5
244 0 579 -53 1019 -142 1189 -30 58 -62 89 -158 154 -83 57 -284 180 -385
236 -549 303 -1073 623 -1320 803 -290 213 -512 436 -594 601 -16 31 -47 117
-70 191 -205 674 -862 2110 -1328 2905 -98 167 -214 345 -224 345 -5 0 -9 5
-9 11 0 38 -346 413 -501 543 -326 273 -599 374 -634 235 -3 -13 6 -125 19
-249 54 -474 54 -721 2 -835 -29 -63 -53 -79 -112 -72 -114 12 -438 308 -661
602 -105 138 -161 265 -117 265 25 0 51 -18 158 -104 224 -182 311 -219 367
-160 20 22 24 38 28 104 8 185 -71 481 -251 944 -124 319 -159 445 -136 493
34 72 154 23 408 -166 41 -30 77 -58 80 -61 3 -3 32 -28 65 -55 33 -28 136
-115 230 -195 242 -208 340 -280 378 -280 47 0 3 124 -133 375 -107 198 -293
483 -563 860 -174 242 -550 750 -567 765 -3 3 -34 43 -70 90 -35 47 -66 87
-70 90 -3 3 -28 34 -55 70 -71 94 -199 257 -363 459 -260 321 -329 405 -497
601 -22 26 -60 71 -85 101 -74 88 -400 460 -459 523 -399 427 -653 661 -788
728 l-63 31 -162 -6 c-335 -10 -741 -103 -2108 -482 -539 -149 -860 -230 -997
-250 -132 -20 -183 -11 -413 72 -123 44 -182 66 -550 205 -1172 443 -2020 604
-2680 508 -316 -46 -599 -139 -941 -310 -537 -269 -1030 -641 -1594 -1205
-338 -337 -795 -866 -865 -1001 -8 -16 -34 -58 -58 -94 -57 -86 -197 -368
-251 -505 -151 -385 -227 -714 -315 -1360 -20 -143 -43 -287 -52 -320 -30
-109 -30 -109 -6 -96 18 10 137 104 152 120 3 4 41 38 85 76 330 289 495 395
621 398 61 1 80 -11 105 -68 59 -135 16 -519 -120 -1055 -71 -285 -202 -697
-241 -763 -25 -42 -41 -44 -51 -6 -13 46 -9 295 11 649 20 361 25 556 14 584
-10 25 -27 19 -95 -30 -68 -49 -171 -151 -384 -380 -369 -396 -568 -585 -653
-621 -30 -12 -37 -12 -57 1 -62 41 -54 238 31 756 19 118 44 278 55 354 30
219 24 366 -16 366 -61 0 -316 -363 -667 -950 -128 -215 -267 -451 -310 -529
-16 -29 -78 -137 -139 -241 -129 -223 -179 -312 -179 -316 0 -2 -11 -22 -24
-43 -13 -21 -47 -78 -74 -127 -57 -103 -215 -385 -257 -459 -84 -150 -132
-238 -171 -310 -105 -198 -128 -232 -194 -286 -36 -30 -87 -74 -115 -100 -27
-25 -120 -108 -205 -184 -85 -76 -197 -176 -249 -224 -52 -47 -106 -97 -120
-109 -14 -13 -44 -40 -66 -61 -22 -20 -69 -63 -105 -96 -258 -232 -882 -853
-1055 -1050 -176 -199 -202 -231 -297 -357 -111 -148 -146 -216 -178 -341 -37
-148 -49 -301 -50 -597 0 -377 25 -720 91 -1238 27 -219 81 -604 95 -682 29
-159 -89 294 -190 736 -104 449 -184 880 -227 1214 -26 206 -37 567 -20 665
72 415 457 944 1131 1555 362 329 854 714 1239 970 65 43 134 97 153 119 26
30 58 103 128 283 477 1242 1071 2406 1755 3438 731 1103 1561 2060 2435 2810
799 684 1604 1167 2260 1355 205 59 423 91 715 103 17 1 107 -3 200 -8z
m-15327 -3995 c-3 -3 -9 2 -12 12 -6 14 -5 15 5 6 7 -7 10 -15 7 -18z m-3814
-847 l528 -523 -93 -80 c-51 -44 -316 -276 -589 -515 -272 -239 -518 -453
-545 -475 -27 -22 -57 -47 -65 -56 -8 -9 -69 -63 -135 -120 -66 -57 -122 -106
-125 -109 -3 -3 -19 -17 -36 -33 l-31 -27 -69 82 c-38 46 -148 176 -244 289
-96 113 -233 274 -305 359 -217 255 -324 381 -404 473 -42 48 -77 92 -79 97
-5 14 113 183 226 325 114 143 451 483 612 616 143 119 318 251 474 357 l119
82 116 -110 c64 -60 354 -345 645 -632z m23289 452 c88 -220 195 -597 473
-1675 422 -1631 665 -2449 969 -3265 226 -608 489 -1174 716 -1547 l20 -32
-278 -140 c-459 -232 -1122 -590 -1393 -754 -234 -141 -346 -232 -391 -317
-33 -64 -34 -194 -1 -265 41 -89 105 -143 209 -174 l52 -16 -46 -70 c-25 -38
-72 -124 -104 -190 -305 -630 -301 -1440 10 -2090 317 -662 879 -1022 1450
-930 619 101 1093 713 1203 1555 13 100 17 486 5 531 l-7 26 83 6 c183 15 352
86 475 202 74 70 154 183 168 240 8 34 -17 43 -53 17 -90 -63 -237 -115 -363
-127 -74 -7 -220 9 -311 33 l-62 17 -42 125 c-23 69 -55 157 -72 197 l-31 72
57 16 c167 47 292 118 401 227 83 84 112 130 155 245 l32 83 125 -143 c550
-624 1268 -1351 1807 -1830 l54 -47 -11 -53 c-6 -28 -90 -430 -187 -892 -255
-1221 -484 -2366 -539 -2697 -22 -134 -28 -152 -70 -225 -64 -111 -157 -224
-336 -407 -516 -530 -1213 -1065 -2029 -1559 l-165 -99 -655 6 c-1094 11
-6627 27 -6924 21 l-278 -6 -67 37 c-124 69 -406 246 -587 368 -852 575 -1566
1247 -2010 1894 l-80 117 -5 335 -6 335 -168 475 c-358 1013 -746 2207 -746
2297 0 42 30 102 137 273 449 715 1280 1711 2017 2419 287 275 681 621 708
621 15 0 338 -177 518 -284 259 -153 787 -499 880 -577 l25 -21 -30 7 c-132
29 -327 34 -452 10 -75 -14 -217 -58 -274 -85 -22 -10 -36 -8 -95 15 -209 83
-362 222 -446 405 -54 117 -53 115 -69 115 -25 0 -42 -75 -43 -190 0 -89 4
-124 23 -185 42 -134 95 -224 200 -333 l64 -67 -74 -78 c-41 -42 -89 -95 -107
-117 l-32 -39 -160 -4 c-138 -4 -173 -1 -253 17 -153 35 -258 93 -379 209 -44
42 -72 62 -83 59 -19 -8 -19 -18 5 -111 49 -194 198 -370 395 -468 41 -21 112
-46 232 -83 9 -3 6 -18 -9 -52 -12 -26 -45 -115 -73 -198 l-51 -150 -90 -23
c-122 -33 -305 -34 -415 -4 -76 21 -179 67 -232 104 -31 22 -57 18 -57 -8 0
-34 75 -150 139 -217 123 -128 289 -205 490 -229 l100 -12 -6 -25 c-4 -14 -7
-123 -7 -241 1 -241 21 -410 74 -615 214 -831 831 -1338 1496 -1230 664 108
1201 801 1315 1700 7 55 13 195 13 310 -1 293 -38 522 -126 780 -33 99 -121
290 -168 366 -16 27 -30 51 -30 53 0 2 24 -5 53 -16 69 -26 182 -22 245 11
169 87 222 301 113 452 -31 43 -130 129 -331 290 -501 399 -1028 759 -1567
1070 -87 50 -162 94 -166 98 -15 14 304 213 563 351 85 46 172 99 193 119 117
110 545 840 769 1311 472 990 740 1899 813 2760 51 600 80 780 170 1055 32 98
122 283 170 350 173 245 384 310 685 213 209 -67 487 -253 739 -494 134 -127
179 -154 275 -161 92 -7 154 21 294 132 529 419 1220 822 1392 812 34 -2 36
-4 73 -97z m-21545 -1514 c372 -102 1316 -358 2097 -571 781 -213 1422 -388
1424 -391 7 -7 -73 -204 -83 -204 -5 0 -86 20 -180 44 -94 25 -234 61 -311 81
-77 20 -189 49 -250 65 -60 16 -297 76 -525 135 -228 59 -437 113 -465 121
-27 8 -313 82 -635 165 -322 83 -668 172 -770 199 -102 26 -327 84 -500 128
-173 45 -347 90 -387 100 l-71 19 -104 -54 c-152 -80 -409 -213 -608 -315
-163 -84 -172 -87 -130 -50 310 276 807 711 813 711 5 1 313 -82 685 -183z
m-2999 -2093 c5 -27 80 -347 166 -713 374 -1594 671 -2857 737 -3135 38 -165
79 -316 89 -336 27 -53 111 -125 171 -145 96 -32 164 -19 409 79 386 154 838
368 1228 581 96 53 176 94 178 92 2 -2 10 -99 18 -217 97 -1389 360 -2779 774
-4087 33 -102 58 -188 57 -189 -3 -4 -314 223 -466 340 -481 370 -1016 835
-1521 1323 -161 156 -195 176 -307 175 -126 0 -247 -84 -286 -197 -25 -74 -20
-135 44 -524 546 -3306 1469 -6441 2700 -9173 61 -137 110 -250 108 -252 -2
-2 -70 -15 -153 -30 -233 -41 -421 -82 -652 -140 -218 -56 -260 -71 -303 -110
-20 -18 -41 -24 -115 -29 -447 -33 -885 -207 -1188 -473 -277 -242 -467 -581
-550 -979 -34 -158 -45 -257 -58 -515 -16 -330 7 -670 66 -948 14 -63 23 -117
21 -119 -3 -2 -10 7 -17 20 -6 12 -43 64 -81 115 -352 471 -897 764 -1573 847
-71 9 -166 19 -209 24 l-80 7 -249 350 c-137 193 -398 559 -580 815 -182 256
-374 526 -427 600 -53 74 -265 371 -470 660 -205 289 -417 586 -470 660 -53
74 -287 403 -520 730 -233 327 -539 757 -680 955 -141 198 -328 461 -416 585
-88 124 -329 461 -534 750 -206 289 -563 791 -794 1115 -231 325 -485 682
-566 795 -80 113 -213 298 -293 412 l-148 208 29 57 c38 75 78 188 103 288 29
116 37 359 15 483 l-16 93 227 308 c126 170 402 545 614 833 212 287 509 690
659 893 151 204 366 496 480 650 400 542 659 894 970 1315 172 234 400 542
505 685 106 143 284 384 396 536 287 390 767 1040 1246 1689 415 564 1235
1674 1416 1920 55 74 139 188 186 252 47 65 89 117 93 118 3 0 11 -21 17 -47z
m27202 -3580 c171 -220 260 -331 434 -538 82 -98 156 -187 162 -196 11 -14 2
-26 -64 -82 -91 -79 -204 -140 -310 -168 -86 -22 -248 -29 -366 -15 -61 7 -71
11 -100 44 -18 20 -65 71 -104 112 l-73 76 41 40 c129 125 224 313 244 480 7
63 -9 214 -26 247 -6 10 -16 16 -22 14 -6 -2 -36 -53 -65 -113 -64 -129 -141
-228 -226 -291 -69 -51 -167 -102 -241 -127 -50 -16 -51 -16 -121 13 -94 38
-223 70 -320 79 l-79 7 140 76 c232 126 952 497 967 498 4 1 62 -70 129 -156z
m-7770 -1643 c163 -50 279 -188 341 -405 32 -113 32 -303 -1 -424 -90 -339
-352 -535 -603 -450 -119 40 -212 127 -278 263 -50 102 -69 176 -77 297 -14
232 59 447 202 594 126 129 267 172 416 125z m6274 4 c81 -20 138 -56 211
-128 257 -258 274 -767 33 -1030 -175 -192 -422 -194 -610 -6 -159 159 -238
433 -195 678 43 245 168 419 345 479 78 27 135 29 216 7z m-14321 -2526 c16
-60 7 -84 -55 -152 -51 -55 -223 -215 -354 -328 -168 -145 -290 -249 -390
-333 -66 -54 -122 -102 -125 -105 -3 -3 -25 -21 -50 -40 -25 -19 -47 -37 -50
-40 -3 -3 -48 -41 -100 -84 -52 -43 -117 -98 -145 -121 -27 -23 -77 -64 -110
-90 -33 -27 -118 -96 -189 -154 -150 -123 -392 -320 -674 -548 -110 -89 -254
-205 -319 -259 -155 -126 -150 -122 -213 -173 -30 -25 -59 -49 -65 -55 -5 -6
-35 -30 -65 -53 -111 -84 -234 -199 -271 -253 -86 -124 -208 -409 -322 -750
-65 -194 -156 -488 -178 -575 -23 -93 -19 -32 11 146 107 642 229 1164 310
1334 16 33 64 101 108 150 327 373 1552 1329 2964 2313 136 95 250 177 253
182 10 17 22 11 29 -12z m33821 -517 c543 -17 967 -33 1210 -46 50 -3 133 -7
185 -10 419 -21 688 -39 1150 -75 590 -47 1024 -94 1570 -171 468 -66 1209
-205 1237 -232 5 -5 -281 -1003 -291 -1014 -1 -1 -123 -21 -272 -43 -288 -43
-338 -56 -389 -101 -72 -63 -98 -195 -56 -284 11 -22 107 -148 215 -280 108
-131 196 -248 196 -258 0 -45 -204 -1083 -214 -1089 -6 -4 -295 -7 -643 -8
-348 0 -638 -2 -645 -4 -7 -3 -618 -7 -1358 -11 -740 -3 -1886 -10 -2547 -15
-1196 -8 -1201 -8 -1249 -30 -64 -28 -92 -54 -120 -115 -28 -58 -32 -147 -10
-199 18 -42 71 -103 107 -122 16 -8 124 -48 241 -88 598 -207 1488 -543 2048
-773 1134 -466 1905 -854 2260 -1138 129 -103 168 -125 234 -132 44 -4 124 17
621 162 952 277 1026 298 1032 292 9 -10 652 -1911 647 -1916 -2 -2 -187 -55
-411 -118 -305 -85 -418 -121 -448 -141 -92 -64 -129 -189 -85 -290 43 -100
63 -111 494 -277 373 -143 388 -150 365 -165 -106 -70 -150 -175 -119 -285 24
-86 73 -126 279 -230 102 -52 179 -94 171 -94 -8 -1 -67 4 -130 9 -63 5 -146
12 -185 15 -132 10 -580 45 -765 60 -102 8 -498 40 -880 70 -382 30 -837 66
-1010 80 -173 14 -425 34 -560 45 -135 11 -272 22 -305 25 -33 3 -121 10 -195
15 -143 11 -154 12 -745 60 -209 17 -396 28 -415 25 -19 -4 -50 -15 -70 -25
-46 -24 -713 -694 -736 -740 -25 -50 -24 -153 3 -205 26 -50 67 -91 113 -115
23 -12 185 -41 470 -85 239 -36 667 -102 950 -146 283 -44 1217 -188 2075
-320 2087 -320 2110 -324 2109 -335 -1 -5 -133 -407 -294 -894 -161 -487 -318
-963 -349 -1059 l-56 -174 -1510 7 c-830 3 -2659 9 -4063 12 l-2552 7 6 21 c7
22 73 217 167 491 31 88 105 305 166 483 61 177 161 467 222 645 61 177 135
393 165 480 50 147 81 235 221 642 30 88 79 232 110 320 30 88 80 232 110 320
31 88 58 183 60 210 4 44 -32 173 -282 1005 -157 525 -288 963 -291 973 -5 16
71 17 1509 17 l1513 0 54 28 c95 48 94 44 287 653 195 613 201 639 155 725
-27 53 -95 111 -143 124 -20 6 -317 21 -660 35 -343 13 -682 27 -754 30 -71 3
-355 14 -630 25 -275 11 -549 22 -610 25 -60 2 -177 7 -260 10 -164 6 -344 13
-500 20 -55 3 -237 10 -405 16 -168 6 -308 11 -312 12 -4 1 -189 253 -411 561
l-404 558 34 147 c18 80 81 353 138 606 58 253 142 622 188 819 l82 360 174
150 c201 174 221 201 221 304 0 88 -25 137 -111 215 l-69 63 137 53 c120 47
144 60 185 102 51 52 68 95 68 175 0 89 -31 132 -209 291 l-160 143 24 87 c14
49 82 298 152 556 l127 467 110 1 c61 1 255 5 431 9 440 10 2685 4 3090 -9z
m-4355 -791 c-58 -212 -100 -384 -100 -410 0 -70 38 -138 114 -205 36 -32 63
-62 59 -65 -5 -4 -60 -27 -123 -51 -135 -50 -179 -77 -213 -127 -79 -116 -56
-238 65 -349 34 -32 85 -79 112 -104 l49 -46 -97 -83 c-55 -46 -105 -99 -116
-120 -11 -21 -39 -127 -64 -236 -226 -995 -405 -1766 -410 -1771 -6 -6 -558
-53 -564 -48 -1 1 126 549 283 1216 158 668 346 1468 419 1778 l133 564 273
214 c150 117 274 212 276 210 2 -1 -42 -167 -96 -367z m-48735 234 c147 -35
315 -157 394 -288 125 -208 129 -460 9 -665 -43 -73 -167 -197 -241 -240 -123
-72 -312 -101 -459 -70 -174 37 -349 170 -432 329 -59 112 -79 206 -73 335 9
184 59 298 186 426 83 82 151 126 251 159 117 40 238 44 365 14z m58124 -3668
c174 -68 577 -226 896 -351 319 -125 586 -231 594 -235 9 -5 -5 -12 -40 -19
-30 -6 -137 -29 -239 -51 -224 -48 -1175 -254 -1454 -314 -116 -25 -442 -114
-771 -210 -313 -92 -671 -196 -795 -232 -124 -36 -238 -69 -254 -75 -26 -8
-36 -5 -80 27 -468 335 -1278 740 -2389 1193 -214 88 -396 159 -807 319 -58
23 -103 41 -100 42 12 3 3866 28 4429 29 338 1 617 3 619 6 14 14 105 -16 391
-129z m-24214 -345 c3979 -28 4630 -33 4975 -40 l375 -6 58 -27 c79 -37 157
-119 202 -212 34 -71 85 -240 75 -249 -3 -3 -56 4 -118 14 -717 117 -2164 186
-4807 230 -1006 16 -4661 23 -5525 10 -1838 -28 -3277 -81 -4750 -177 -615
-39 -1483 -110 -1867 -152 -86 -10 -84 -12 -52 94 55 181 175 327 329 403 119
58 210 78 407 90 175 11 1022 30 1558 35 669 6 7839 -4 9140 -13z m14302 -439
c62 -86 187 -260 278 -386 91 -126 164 -230 163 -231 -2 -1 -64 1 -138 6 -74
4 -241 12 -370 19 -129 7 -239 16 -245 21 -14 14 -374 673 -369 678 5 5 464
48 524 49 l45 1 112 -157z m-13897 -342 c2418 -34 3876 -89 4770 -181 197 -20
413 -51 483 -70 35 -9 37 -12 33 -42 -3 -18 -15 -99 -26 -182 -110 -783 -571
-2882 -1262 -5740 -66 -275 -127 -528 -135 -562 l-15 -63 -7093 0 -7093 0 -16
68 c-8 37 -60 272 -115 522 -55 250 -141 640 -191 865 -50 226 -212 961 -361
1635 -149 674 -329 1491 -400 1815 -241 1089 -350 1580 -354 1596 -6 17 61 25
615 74 1741 154 3880 247 6435 279 493 6 4046 -4 4725 -14z m13900 -745 c157
-8 332 -17 390 -20 342 -18 664 -31 2150 -90 905 -35 1686 -67 1735 -69 50 -3
186 -8 303 -12 117 -4 215 -10 217 -14 2 -4 -9 -47 -25 -96 -16 -49 -56 -176
-90 -281 l-61 -193 -1566 0 -1566 0 -631 -60 c-602 -58 -737 -74 -1773 -218
l-341 -48 -41 95 -41 95 77 80 c263 276 635 644 771 764 111 97 58 90 492 67z
m-2509 -555 c493 -101 799 -495 883 -1140 3 -25 11 -115 16 -200 11 -168 73
-726 81 -735 3 -3 81 94 174 215 92 121 172 220 179 220 6 0 52 -7 101 -15
324 -53 561 -196 668 -404 53 -102 71 -166 71 -251 -1 -115 -34 -207 -122
-339 -102 -154 -287 -324 -533 -487 l-126 -84 -114 29 c-286 74 -623 130 -942
156 -220 18 -694 20 -919 4 -320 -22 -695 -74 -957 -133 l-104 -24 -76 68
c-358 316 -601 692 -677 1045 -23 108 -23 304 0 410 24 109 87 266 138 345
175 270 464 328 836 169 52 -22 122 -50 155 -63 100 -37 256 -119 357 -187
154 -103 269 -230 351 -386 l30 -58 -5 105 c-10 239 -133 500 -356 756 l-89
102 19 86 c96 436 318 733 602 801 83 21 245 18 359 -5z m-2326 -689 c3 -5 1
-12 -5 -16 -5 -3 -10 1 -10 9 0 18 6 21 15 7z m6169 -88 c376 -1253 566 -1892
566 -1904 0 -9 -237 -704 -526 -1545 -289 -841 -568 -1652 -619 -1802 -52
-150 -97 -277 -100 -282 -8 -13 -685 -14 -685 0 0 5 9 33 19 62 11 29 81 226
155 438 74 212 194 554 266 760 72 206 163 465 201 575 80 227 124 352 173
493 346 980 496 1419 496 1453 0 52 -11 82 -200 519 -350 810 -510 1185 -510
1195 0 7 132 24 368 47 202 19 370 36 374 37 4 0 14 -20 22 -46z m-7777 -803
c166 -258 218 -316 307 -344 103 -33 149 -23 428 92 137 57 258 106 270 111
l23 9 1 -187 c1 -151 5 -205 23 -285 82 -380 302 -770 619 -1098 l94 -97 -26
-53 c-16 -32 -26 -69 -26 -95 0 -38 82 -559 255 -1616 25 -153 45 -288 45
-300 0 -35 -651 -684 -961 -959 l-76 -68 -1414 1 -1414 0 120 43 c699 248
1197 653 1451 1181 139 290 194 543 194 898 0 521 -155 1257 -375 1777 -19 46
-34 84 -32 85 1 1 25 10 54 19 57 19 130 78 164 133 50 80 50 98 8 655 -21
282 -38 526 -39 543 0 32 11 16 307 -445z m-18992 -835 c114 -517 276 -1253
360 -1635 85 -382 168 -760 185 -840 17 -80 69 -318 116 -529 81 -372 84 -388
84 -514 l0 -129 -142 7 c-576 26 -1049 134 -1466 336 -536 258 -848 637 -927
1124 -39 238 -1 669 95 1097 46 203 124 462 180 599 17 41 36 87 43 104 7 16
38 83 70 148 l58 118 202 207 c111 114 308 315 438 447 130 132 289 295 355
363 l119 123 12 -43 c6 -24 104 -466 218 -983z m16964 342 c183 -422 189 -434
240 -480 106 -96 166 -101 536 -41 50 7 95 14 101 14 11 0 38 -52 34 -66 -1
-4 3 -10 8 -13 39 -25 180 -403 251 -671 108 -411 172 -888 151 -1140 -34
-422 -205 -735 -550 -1010 -397 -317 -1055 -531 -1750 -569 -85 -5 -156 -8
-157 -7 -1 1 4 81 12 177 12 135 25 216 60 359 136 569 395 1659 499 2100 113
484 276 1194 341 1485 56 252 54 245 65 225 4 -8 76 -172 159 -363z m-25729
233 c589 -30 1112 -106 1593 -232 l117 -31 0 -39 c0 -22 -11 -164 -25 -316
-57 -626 -87 -963 -130 -1447 -25 -280 -59 -656 -75 -835 -16 -179 -50 -554
-75 -835 -25 -280 -50 -557 -55 -614 -6 -58 -10 -110 -10 -118 0 -11 -308 -13
-1797 -11 l-1798 3 -7 65 c-23 205 -151 1387 -298 2765 -44 408 -66 607 -110
1010 -27 247 -36 361 -28 366 5 4 94 25 197 47 538 118 1156 199 1661 219 91
3 167 7 169 9 9 8 484 3 671 -6z m-3168 -575 c9 -83 17 -155 17 -161 1 -6 -38
-25 -86 -44 -364 -137 -656 -377 -809 -664 -101 -190 -145 -368 -149 -606 -9
-490 139 -898 434 -1191 209 -208 483 -348 786 -404 155 -28 137 -5 156 -200
10 -93 16 -171 14 -173 -6 -6 -239 29 -359 54 -838 177 -1252 593 -1366 1374
-52 360 -41 855 25 1135 77 325 237 578 482 757 135 100 362 196 560 238 96
20 233 39 263 36 12 -1 19 -34 32 -151z m43218 -375 c278 -22 561 -45 630 -50
69 -6 321 -26 560 -45 531 -42 497 -40 870 -70 168 -13 368 -29 445 -35 77 -6
221 -17 320 -25 99 -8 239 -19 310 -25 72 -5 243 -19 380 -30 649 -51 901 -71
1035 -81 80 -5 199 -16 265 -23 343 -39 601 -69 611 -71 23 -7 592 -650 583
-660 -2 -2 -40 1 -84 6 -44 4 -395 40 -780 79 l-700 71 -2535 389 c-1394 214
-2571 394 -2615 400 -131 18 -130 10 -19 121 l99 100 60 -6 c33 -3 287 -23
565 -45z m-43145 -332 c2 -13 47 -428 100 -923 52 -495 97 -913 100 -928 5
-27 4 -28 -28 -22 -200 42 -424 171 -540 310 -142 172 -212 362 -238 647 -31
349 78 610 332 799 67 49 231 139 256 139 7 0 15 -10 18 -22z m37789 -200
c-25 -68 -386 -1097 -614 -1748 -115 -327 -266 -757 -335 -955 -70 -198 -134
-379 -142 -402 l-15 -43 -244 0 c-212 0 -244 2 -244 15 0 50 163 1114 173
1135 7 14 81 113 164 220 387 502 939 1292 1217 1743 27 42 50 77 52 77 2 0
-4 -19 -12 -42z m-2799 -199 c337 -21 699 -79 1002 -161 103 -28 112 -32 108
-52 -3 -11 -52 -340 -110 -731 -57 -390 -118 -802 -135 -915 -17 -113 -55
-371 -85 -575 -30 -203 -58 -382 -61 -397 l-6 -28 -1094 0 c-881 0 -1094 2
-1094 13 0 7 -36 233 -79 502 -44 270 -138 855 -211 1300 -72 446 -132 819
-133 830 -2 17 10 23 83 42 292 78 760 149 1120 172 165 11 520 11 695 0z
m-7805 -2544 c0 -39 -20 -291 -26 -332 l-5 -33 -7024 0 -7025 0 0 198 0 197
7040 0 7040 0 0 -30z m-27552 -175 c150 -41 345 -78 546 -104 l171 -21 5 -52
6 -53 -431 0 -430 0 3 130 c2 74 7 130 13 130 5 0 58 -13 117 -30z m50230
-866 c76 -25 151 -89 192 -165 35 -64 35 -65 35 -194 0 -124 -1 -133 -29 -188
-36 -71 -99 -130 -174 -165 l-57 -27 -29375 0 -29375 0 -67 33 c-82 40 -149
111 -179 190 -28 75 -31 224 -6 297 35 100 126 191 221 221 33 10 5523 13
29402 13 27038 1 29366 0 29412 -15z m-36103 -1371 c-29 -75 -103 -302 -134
-413 -100 -349 -159 -696 -180 -1038 -5 -85 -11 -155 -13 -157 -2 -2 -62 -11
-133 -20 -165 -21 -349 -57 -490 -95 l-110 -29 -135 68 c-129 65 -471 256
-555 310 -22 14 -49 31 -60 38 -78 47 -215 133 -294 183 -51 33 -97 60 -101
60 -5 0 -10 4 -12 8 -1 4 -79 59 -173 121 -93 62 -228 154 -300 204 -287 201
-455 320 -564 399 -351 256 -501 369 -501 374 0 2 846 4 1881 4 1788 0 1881
-1 1874 -17z m12001 1 c-3 -8 -2 -13 3 -10 7 5 19 -20 25 -54 1 -3 5 -11 9
-17 5 -8 3 -13 -5 -13 -10 0 -10 -2 1 -9 7 -5 10 -14 7 -20 -4 -6 -2 -10 5 -9
6 2 14 -3 17 -11 2 -8 0 -11 -5 -8 -11 7 -11 -38 0 -49 4 -5 5 -1 2 8 -4 9 -2
19 4 23 6 3 11 5 11 3 0 -2 9 -28 21 -58 40 -109 50 -142 45 -148 -3 -3 0 -12
8 -21 27 -32 35 -78 25 -143 -6 -35 -12 -81 -15 -103 -3 -22 -7 -47 -11 -55
-3 -8 -7 -28 -9 -44 -4 -30 -48 -169 -69 -221 -7 -16 -16 -41 -20 -55 -11 -34
-115 -239 -136 -268 -9 -12 -19 -19 -21 -15 -3 5 -3 2 -1 -6 2 -8 -9 -33 -24
-55 -28 -41 -73 -93 -58 -67 5 10 4 12 -4 7 -6 -4 -8 -12 -5 -18 4 -6 3 -13
-2 -17 -5 -3 -22 -24 -39 -46 -16 -22 -34 -44 -41 -50 -6 -5 -31 -32 -55 -60
-46 -52 -179 -178 -243 -230 -20 -16 -52 -43 -71 -58 -29 -24 -37 -27 -57 -17
-21 10 -21 10 -5 -3 21 -18 29 -11 -138 -121 -71 -47 -135 -89 -141 -93 -50
-37 -436 -224 -450 -219 -9 3 -12 1 -9 -4 3 -6 -1 -10 -9 -10 -9 0 -16 -4 -16
-8 0 -15 -116 -63 -136 -56 -13 4 -15 3 -6 -3 16 -12 -102 -78 -120 -67 -6 4
-8 3 -5 -3 3 -5 -31 -32 -76 -59 -92 -55 -84 -49 -151 -104 -27 -21 -53 -37
-58 -34 -5 3 -7 0 -6 -8 2 -7 -5 -12 -14 -12 -10 1 -15 -2 -12 -8 3 -5 -16
-33 -43 -63 -63 -70 -85 -101 -113 -155 -12 -25 -29 -49 -37 -53 -7 -5 -11
-13 -7 -18 3 -5 -4 -26 -16 -46 -11 -19 -19 -38 -16 -40 3 -3 -1 -22 -8 -42
-23 -63 -40 -125 -37 -143 1 -9 -3 -19 -9 -23 -6 -3 -8 -10 -5 -14 2 -5 -2
-30 -10 -57 -7 -27 -19 -78 -25 -114 -12 -68 -25 -94 -43 -83 -6 3 -7 1 -3 -6
4 -6 12 -8 18 -5 6 4 8 -1 4 -13 -13 -40 -41 -143 -51 -188 -28 -124 -106
-356 -116 -349 -5 3 -6 -2 -3 -11 6 -15 -52 -195 -66 -205 -4 -3 -10 -20 -13
-37 -13 -67 -183 -434 -272 -588 -19 -33 -42 -73 -51 -90 -9 -16 -20 -32 -23
-35 -3 -3 -19 -24 -35 -47 -16 -24 -33 -40 -39 -36 -6 4 -7 1 -2 -7 4 -7 4
-15 -1 -19 -5 -3 -23 -24 -39 -46 -43 -58 -175 -188 -212 -210 -18 -11 -33
-23 -33 -28 0 -5 -7 -6 -16 -3 -8 3 -12 2 -9 -4 5 -8 -37 -32 -130 -72 -146
-63 -616 -77 -915 -28 -36 6 -74 11 -85 12 -38 0 -290 49 -307 58 -10 5 -25 7
-34 3 -11 -4 -15 -2 -11 4 4 6 -4 8 -21 6 -22 -4 -24 -2 -12 7 12 9 9 11 -15
7 -17 -3 -54 3 -85 14 -30 10 -58 19 -62 19 -4 0 -8 -17 -8 -38 0 -21 -3 -41
-6 -44 -4 -5 -11 -157 -17 -378 -1 -39 -5 -57 -17 -62 -13 -6 -13 -7 2 -7 14
-1 17 -17 8 -41 -1 -3 -2 -8 -2 -11 1 -7 -59 5 -75 14 -5 4 -36 9 -67 12 -69
6 -106 22 -85 36 11 7 11 9 1 9 -10 0 -12 312 -9 1633 2 897 6 1650 9 1672 3
22 9 67 13 100 4 33 10 65 13 70 4 6 5 18 3 29 -1 10 1 16 6 13 5 -3 10 8 10
26 0 29 8 72 14 72 1 0 3 9 4 20 4 41 29 125 37 125 4 0 5 6 2 14 -3 8 2 26
11 40 10 14 13 26 9 26 -5 0 -4 4 3 8 7 4 14 25 17 46 3 22 9 42 13 45 5 3 10
17 10 30 1 13 7 27 13 31 7 4 11 10 11 14 -3 20 0 26 11 20 6 -4 8 -3 4 4 -8
13 22 92 36 92 5 0 8 8 6 18 -2 11 3 17 15 16 14 -2 15 1 6 13 -10 11 -8 19 8
41 11 15 25 27 31 27 6 0 14 4 19 9 4 5 3 6 -4 2 -6 -3 -14 -2 -18 4 -3 5 -1
10 6 10 7 0 10 3 6 6 -3 3 4 17 16 31 12 13 22 30 22 36 2 20 17 47 27 47 5 0
7 -10 4 -22 -3 -13 -3 -17 0 -9 5 11 8 11 16 0 6 -10 7 -7 3 10 -6 18 -4 22 6
16 8 -5 11 -4 6 1 -5 5 -13 9 -18 9 -18 0 -14 14 16 55 49 68 68 88 61 67 -4
-11 -2 -16 5 -12 6 4 8 14 5 22 -3 8 6 29 21 48 23 29 30 32 52 24 24 -10 25
-9 9 7 -16 16 -13 21 39 80 31 35 59 62 61 59 3 -2 13 7 24 20 11 14 24 22 30
19 6 -4 8 -3 5 3 -9 15 38 55 59 51 13 -2 18 2 16 13 -3 19 40 55 146 124 9 6
24 17 34 25 10 8 22 15 26 15 3 0 17 10 30 22 14 13 28 20 33 17 5 -3 9 -1 9
4 0 6 10 8 23 5 18 -4 19 -3 7 7 -12 10 -11 11 8 7 12 -3 20 -1 17 3 -6 10 61
53 81 53 8 0 14 4 14 7 0 6 51 32 70 36 3 0 35 15 72 33 60 29 132 51 116 36
-3 -4 -14 -8 -24 -9 -10 -2 -19 -8 -20 -15 -2 -7 0 -7 3 -1 3 8 9 7 19 -1 8
-7 17 -9 21 -5 3 3 1 6 -5 6 -11 0 26 44 38 46 3 0 21 8 40 16 19 9 38 14 42
12 5 -3 8 0 8 5 0 6 8 11 18 11 14 0 15 -2 2 -10 -17 -11 -10 -13 14 -4 9 3
13 10 10 15 -3 5 7 9 21 9 14 0 39 7 56 15 16 9 34 13 38 10 5 -3 11 -2 13 3
4 11 147 44 158 37 6 -4 10 -1 10 5 0 6 4 9 9 6 5 -3 31 1 59 9 28 9 71 17 96
19 24 2 48 6 52 9 12 6 167 24 274 32 36 2 101 7 144 11 75 7 79 6 73 -12 -6
-16 -5 -17 5 -4 11 12 44 15 171 17 88 1 157 -2 157 -7 0 -5 7 -6 17 -3 11 4
14 3 9 -5 -4 -7 -2 -12 3 -12 6 0 11 4 11 9 0 4 28 8 62 8 58 0 84 12 59 28
-6 3 -11 1 -11 -5 0 -8 -9 -10 -24 -6 -12 3 -41 8 -62 11 -21 3 -46 9 -54 12
-8 3 -31 7 -50 9 -19 2 -51 6 -70 9 -78 12 -98 14 -178 20 -46 3 -93 10 -105
14 -12 5 -34 7 -49 5 -17 -1 -28 2 -28 9 0 9 -2 9 -8 0 -6 -9 -17 -10 -38 -5
-47 13 -600 1 -653 -14 -14 -4 -22 -3 -19 2 4 5 -5 10 -19 11 -19 1 -22 -1
-12 -8 10 -6 8 -9 -11 -10 -14 -1 -43 -4 -65 -6 -64 -6 -79 -6 -100 2 -14 5
-16 4 -6 -3 15 -11 -2 -27 -19 -17 -5 3 -16 3 -22 -2 -7 -4 -37 -13 -66 -19
-42 -8 -55 -8 -63 3 -7 7 -17 13 -23 12 -7 0 -6 -2 2 -6 20 -8 14 -20 -18 -31
-21 -8 -32 -8 -36 0 -4 7 -10 5 -16 -6 -5 -9 -17 -16 -26 -16 -9 0 -41 -9 -69
-20 -29 -11 -53 -18 -53 -15 0 3 -11 -2 -24 -11 -14 -8 -27 -15 -30 -15 -9 1
-34 -9 -111 -42 -38 -16 -78 -29 -88 -29 -9 0 -15 -4 -11 -9 3 -5 2 -8 -3 -7
-4 1 -20 -6 -36 -16 -23 -16 -30 -16 -44 -5 -13 11 -15 11 -9 1 10 -16 -23
-44 -42 -37 -7 3 -11 1 -8 -4 3 -5 -1 -12 -10 -15 -8 -3 -12 -2 -9 4 3 6 -1 7
-10 4 -9 -4 -13 -9 -10 -12 8 -8 -68 -51 -79 -45 -5 4 -6 2 -3 -4 4 -6 -10
-19 -31 -29 -20 -10 -43 -25 -50 -32 -8 -7 -18 -9 -24 -6 -6 4 -8 2 -4 -4 12
-19 -13 -23 -45 -7 -28 15 -33 15 -46 2 -11 -10 -12 -17 -4 -22 6 -3 10 -1 9
6 -2 6 3 14 11 17 8 3 11 0 7 -7 -5 -7 -1 -9 11 -4 15 6 16 4 6 -9 -7 -8 -10
-17 -7 -20 8 -9 -55 -50 -66 -43 -6 4 -7 -1 -3 -11 6 -15 4 -15 -23 1 -23 14
-25 14 -9 1 18 -15 18 -17 1 -34 -9 -9 -16 -12 -14 -5 2 6 -1 11 -7 11 -5 1
-9 -6 -7 -14 2 -7 -11 -22 -28 -32 -16 -10 -27 -22 -22 -26 4 -4 3 -7 -3 -6
-19 4 -38 0 -32 -7 9 -9 -23 -43 -40 -43 -8 0 -11 -5 -7 -12 4 -7 3 -8 -4 -4
-7 4 -12 1 -12 -6 0 -8 -17 -29 -37 -48 -20 -19 -33 -28 -28 -20 4 8 -3 4 -17
-10 -13 -14 -23 -28 -21 -32 2 -3 -10 -18 -27 -31 -16 -14 -30 -29 -30 -34 0
-16 -70 -84 -80 -78 -5 3 -7 0 -5 -8 6 -15 -52 -93 -67 -89 -5 1 -7 -2 -3 -8
3 -5 -8 -30 -25 -55 -25 -37 -36 -45 -53 -41 -12 3 -16 3 -9 0 6 -3 12 -12 12
-20 0 -9 -5 -12 -12 -8 -7 4 -8 3 -4 -5 4 -6 -13 -43 -37 -84 -25 -39 -56 -93
-69 -118 l-24 -47 -28 54 c-15 29 -28 57 -28 61 0 4 -6 12 -14 16 -10 6 -12
13 -4 27 15 28 12 37 -5 14 -12 -16 -14 -16 -15 -3 0 9 -7 22 -15 29 -8 7 -12
16 -9 21 3 5 -1 12 -10 15 -8 3 -17 12 -20 20 -3 8 -1 12 4 9 5 -3 7 1 4 9 -3
9 -11 14 -16 13 -6 -1 -13 4 -16 12 -3 9 0 11 9 6 11 -6 12 -5 2 6 -15 15 -17
33 -4 24 15 -9 24 15 11 30 -15 18 -31 10 -23 -10 3 -9 -1 -15 -10 -15 -8 0
-29 22 -46 48 -33 52 -40 72 -17 53 10 -9 17 -7 27 6 13 16 12 17 -3 5 -11 -9
-18 -10 -23 -2 -3 6 -10 8 -15 5 -12 -8 -41 25 -34 37 4 7 2 8 -4 4 -7 -4 -12
-3 -12 1 0 5 -27 39 -60 77 -33 37 -58 71 -55 77 3 5 0 6 -8 4 -17 -7 -51 30
-42 45 3 6 3 9 -2 8 -12 -4 -83 55 -83 70 0 7 -4 11 -9 8 -5 -4 -21 8 -35 25
-14 17 -26 27 -26 23 0 -4 -13 5 -29 20 -18 17 -28 36 -26 47 2 11 0 17 -6 14
-5 -4 -7 -11 -4 -16 10 -15 -5 -10 -31 10 -13 10 -20 22 -16 26 4 3 2 5 -3 4
-14 -4 -55 20 -55 32 0 6 6 7 13 3 6 -4 4 2 -6 13 -9 11 -14 23 -10 28 5 4 -2
3 -13 -3 -12 -6 -25 -8 -29 -4 -5 4 -5 1 0 -7 10 -17 -85 47 -102 68 -7 9 -13
12 -13 8 0 -9 -132 62 -142 77 -4 6 -8 8 -8 4 0 -7 -140 59 -140 67 0 2 8 2
18 -1 14 -5 15 -4 2 5 -9 6 -19 6 -24 1 -9 -9 -78 18 -84 33 -2 4 -8 5 -13 1
-5 -3 -21 2 -36 10 -16 8 -41 17 -56 21 -25 5 -30 25 -6 25 6 0 8 -3 6 -7 -3
-5 7 -9 21 -10 l27 -1 -28 14 c-19 10 -32 12 -45 5 -20 -11 -65 -4 -57 9 2 4
-7 5 -20 2 -15 -2 -25 0 -25 7 0 7 -4 10 -9 7 -5 -3 -37 4 -72 15 -69 23 -101
30 -136 31 -13 0 -23 4 -23 10 0 5 -4 7 -9 4 -9 -6 -100 9 -131 21 -8 3 -25 5
-38 4 -13 -2 -29 2 -36 8 -7 6 -26 10 -42 10 -16 0 -51 3 -79 6 -27 3 -62 6
-77 7 -16 0 -28 5 -28 12 0 6 -5 4 -11 -4 -8 -11 -12 -12 -16 -2 -2 6 -9 12
-14 12 -6 0 -7 -4 -4 -10 7 -11 -8 -14 -19 -3 -4 4 -64 7 -134 8 -70 0 -136 4
-147 9 -16 6 -17 6 -5 -3 11 -8 -16 -11 -105 -12 -156 -1 -212 -4 -254 -14
-23 -5 -31 -4 -27 4 4 6 2 11 -3 11 -6 0 -11 -4 -11 -9 0 -8 -34 -14 -153 -26
-18 -2 -59 -9 -91 -15 -32 -6 -67 -9 -77 -7 -12 3 -16 1 -13 -5 5 -7 -2 -9
-20 -6 -14 3 -26 1 -26 -4 0 -5 -8 -8 -17 -6 -10 1 -23 -1 -30 -5 -6 -4 -14
-3 -18 3 -3 5 -11 10 -16 10 -6 0 -7 -5 -3 -12 5 -8 1 -9 -12 -4 -13 5 -16 4
-9 -3 6 -6 51 -11 100 -12 69 -1 93 -5 102 -18 12 -14 12 -14 6 3 -5 16 -3 18
11 13 10 -4 15 -3 11 3 -4 6 7 10 24 10 16 0 33 -5 36 -10 5 -8 11 -8 19 -1 8
7 54 9 122 6 60 -3 137 -5 171 -5 33 1 64 -4 68 -9 3 -6 12 -11 18 -11 7 0 6
4 -3 10 -10 6 3 7 40 3 30 -3 57 -10 59 -16 2 -5 7 -3 12 4 6 9 12 10 17 4 4
-5 44 -11 89 -12 54 -1 91 -7 110 -18 24 -14 25 -15 5 -12 -12 3 -20 1 -16 -4
8 -14 34 -11 40 6 5 11 10 12 26 4 11 -6 26 -8 34 -5 8 3 14 1 14 -5 0 -6 4
-7 10 -4 11 7 172 -22 209 -38 14 -5 32 -9 38 -8 7 1 25 -5 40 -12 16 -8 34
-12 42 -9 8 2 11 0 7 -6 -4 -6 2 -8 16 -4 13 3 19 1 15 -5 -5 -7 0 -9 13 -6
12 3 20 0 20 -6 0 -7 6 -11 13 -10 34 4 58 -3 83 -26 20 -19 30 -22 45 -15 11
6 20 6 24 1 3 -5 19 -12 36 -16 19 -4 29 -12 25 -20 -3 -9 3 -12 20 -10 13 1
24 -1 24 -5 0 -4 7 -7 15 -7 21 0 115 -45 115 -55 0 -5 -11 -1 -24 7 -21 14
-24 14 -30 0 -4 -13 -1 -15 14 -10 14 4 19 2 17 -7 -2 -7 -2 -9 1 -5 2 4 11 2
20 -5 10 -8 13 -9 9 -1 -4 6 -3 14 2 17 5 3 12 -1 15 -10 3 -8 10 -13 16 -9
12 7 70 -22 70 -35 0 -6 3 -9 8 -9 20 3 32 -2 27 -12 -4 -6 -1 -9 6 -7 16 3
119 -61 119 -74 0 -5 5 -6 10 -3 6 3 10 2 10 -4 0 -5 -6 -12 -12 -15 -7 -2 -2
-3 12 -2 25 3 50 -9 50 -25 0 -5 -8 -6 -17 -3 -15 5 -15 4 -3 -4 10 -8 19 -7
29 1 10 8 13 8 8 1 -4 -7 2 -14 15 -17 16 -5 19 -9 10 -19 -8 -11 -7 -14 8
-14 10 0 16 5 13 11 -4 5 3 2 15 -9 12 -10 19 -24 15 -30 -3 -6 -3 -8 2 -4 11
10 47 -11 40 -23 -4 -5 -2 -8 3 -7 9 3 92 -67 92 -78 0 -3 -4 -3 -8 0 -5 3 -9
-1 -9 -8 0 -7 6 -13 13 -13 7 0 11 4 8 9 -3 4 -3 8 0 8 13 0 182 -195 180
-208 0 -4 10 -15 22 -25 14 -11 23 -29 23 -45 0 -52 3 -62 17 -51 9 7 19 2 38
-18 14 -15 26 -31 26 -35 0 -5 0 -10 0 -13 0 -3 9 -14 20 -25 12 -12 18 -25
15 -30 -3 -5 -1 -11 5 -15 5 -3 10 -10 10 -16 0 -11 -22 -8 -33 6 -5 6 -7 4
-4 -5 2 -9 14 -14 29 -13 19 1 28 -4 33 -20 4 -12 7 -25 6 -29 -1 -5 4 -8 10
-8 5 0 7 -5 4 -10 -4 -6 -11 -7 -17 -4 -7 4 -8 2 -4 -4 4 -6 13 -9 21 -5 14 5
19 -7 16 -36 -2 -7 2 -10 8 -6 7 3 11 -2 11 -14 0 -12 4 -21 8 -21 12 0 31
-58 26 -82 -4 -21 -4 -21 4 -3 8 17 11 15 23 -20 7 -22 14 -54 15 -71 0 -17
10 -40 23 -53 18 -18 22 -30 17 -55 -4 -20 -3 -26 3 -17 7 11 11 4 17 -25 5
-21 8 -42 9 -46 0 -3 3 -10 8 -14 12 -12 8 -26 -5 -18 -7 4 -4 -2 6 -14 11
-12 16 -25 12 -29 -4 -4 -11 -1 -16 7 -6 9 -10 10 -10 3 0 -7 8 -16 17 -21 9
-6 18 -18 20 -28 2 -11 6 -30 9 -44 2 -14 7 -36 10 -50 8 -43 14 -83 19 -133
2 -26 9 -71 15 -100 13 -64 11 159 16 -1705 3 -870 2 -1588 -2 -1594 -4 -7
-10 -5 -16 6 -5 9 -14 16 -21 16 -7 0 -6 -4 3 -10 12 -7 12 -12 2 -22 -8 -8
-12 -9 -12 -1 0 9 -10 8 -34 -2 -37 -16 -88 -28 -123 -29 -13 -1 -23 -4 -23
-8 0 -5 -7 -8 -16 -8 -12 0 -15 9 -13 38 2 21 0 42 -4 48 -4 7 -10 87 -13 180
-4 93 -8 187 -9 209 -1 22 -3 57 -4 79 -1 35 -3 38 -23 32 -73 -21 -137 -37
-163 -42 -16 -3 -46 -9 -66 -14 -132 -36 -434 -83 -484 -76 -26 3 -33 2 -20
-3 52 -21 -561 -24 -640 -3 -22 6 -66 16 -97 22 -92 18 -246 99 -232 121 3 5
-1 6 -9 3 -18 -7 -140 104 -130 119 3 5 1 7 -4 4 -6 -4 -36 24 -67 61 -31 37
-65 76 -74 87 -28 32 -139 208 -178 282 -20 37 -44 84 -55 103 -51 98 -109
231 -104 240 3 6 2 10 -3 10 -10 0 -79 168 -74 183 1 4 -3 7 -8 7 -6 0 -8 12
-4 28 4 18 3 23 -4 13 -7 -9 -13 1 -22 38 -6 28 -16 54 -21 57 -5 3 -6 10 -3
16 4 6 2 13 -3 17 -12 7 -63 169 -63 198 0 10 -4 23 -10 29 -14 14 -79 245
-73 260 3 8 0 14 -7 14 -7 0 -10 8 -7 20 3 10 0 21 -5 22 -5 2 -10 22 -11 45
-1 22 -6 38 -11 35 -5 -3 -6 7 -2 22 5 20 4 26 -5 20 -9 -5 -10 -1 -7 14 3 12
2 22 -3 24 -4 2 -10 23 -13 48 -2 25 -9 58 -15 74 -7 16 -9 31 -6 34 3 3 5 -1
5 -8 0 -7 3 -11 6 -7 3 3 -1 18 -10 34 -8 15 -25 66 -36 112 -12 47 -34 116
-51 154 -17 42 -27 79 -24 91 5 15 4 17 -3 8 -7 -10 -16 -2 -37 33 -22 39 -25
49 -14 57 11 8 10 9 -3 5 -10 -4 -22 3 -32 18 -27 42 -158 169 -216 210 -65
47 -66 47 -195 122 -55 31 -101 61 -103 65 -2 4 -10 8 -17 8 -25 0 -84 33 -78
43 3 6 1 7 -5 3 -12 -7 -62 13 -62 26 0 4 -6 8 -12 8 -15 0 -160 62 -168 71
-8 9 -136 69 -149 69 -6 0 -11 4 -11 8 0 5 -18 17 -40 27 -22 10 -37 21 -35
26 3 4 0 11 -6 15 -8 4 -9 3 -5 -4 4 -7 5 -12 2 -12 -17 0 -231 140 -231 151
-1 8 -6 13 -13 12 -14 -3 -88 42 -144 89 -127 105 -177 152 -171 161 3 6 1 7
-6 3 -15 -9 -165 139 -156 154 3 5 0 7 -8 4 -9 -3 -23 8 -37 30 -12 20 -26 36
-32 36 -6 0 -8 7 -5 14 4 9 1 13 -6 10 -7 -2 -20 8 -30 23 -9 16 -33 50 -52
77 -19 27 -31 54 -28 60 3 6 3 8 -2 4 -9 -8 -34 22 -60 71 -14 28 -15 35 -3
43 10 7 8 8 -5 4 -11 -4 -20 0 -24 12 -4 9 -11 20 -16 24 -6 3 -10 20 -10 38
0 17 -3 26 -7 20 -4 -6 -15 9 -25 32 -10 24 -28 66 -40 93 -12 28 -27 70 -34
95 -8 25 -20 62 -27 83 -8 20 -14 40 -14 45 0 4 -5 24 -11 45 -6 22 -17 78
-24 125 -14 83 -14 91 7 160 16 55 25 72 36 67 12 -4 13 -3 2 10 -10 12 -9 20
4 40 9 14 13 25 10 25 -4 0 1 10 12 22 10 12 14 18 7 15 -12 -8 22 90 39 111
6 6 7 12 4 12 -4 0 -1 10 6 23 7 12 13 25 14 30 1 4 3 10 4 15 1 4 2 12 1 17
-1 6 6 1 14 -10 9 -11 13 -26 10 -35 -5 -11 -3 -12 5 -4 9 9 8 19 -3 40 -15
31 -12 58 5 48 7 -4 8 -2 4 4 -4 7 -4 17 -1 22 4 7 1897 10 5667 10 5106 0
5660 -2 5654 -16z m3468 8 c-21 -19 -531 -332 -540 -332 -2 0 -39 -21 -82 -47
-82 -50 -164 -97 -252 -146 -30 -17 -107 -60 -170 -95 -203 -115 -787 -406
-1060 -527 -58 -26 -127 -58 -155 -70 -27 -13 -70 -31 -95 -41 -25 -10 -64
-28 -87 -40 l-41 -22 -7 62 c-23 211 -72 478 -130 709 -28 109 -144 479 -171
545 -5 9 279 12 1397 12 772 0 1399 -4 1393 -8z m-9943 -905 c-1 -12 -15 -9
-19 4 -3 6 1 10 8 8 6 -3 11 -8 11 -12z m1654 -7 c-3 -5 -11 -10 -16 -10 -6 0
-7 5 -4 10 3 6 11 10 16 10 6 0 7 -4 4 -10z m-997 -635 c-3 -3 -9 2 -12 12 -6
14 -5 15 5 6 7 -7 10 -15 7 -18z m-591 8 c-4 -3 1 -12 11 -20 13 -10 14 -13 2
-11 -26 5 -42 38 -18 38 6 0 8 -3 5 -7z m443 -5398 l0 -284 -92 -72 c-278
-216 -570 -363 -871 -439 -462 -117 -994 -22 -1399 249 -165 110 -329 284
-408 433 l-31 57 16 118 c9 65 19 140 22 166 6 46 7 48 32 42 144 -37 427 -83
671 -111 193 -21 788 -30 1015 -15 304 20 812 88 985 130 19 5 41 9 48 10 9 1
12 -62 12 -284z m790 251 c264 -49 552 -85 845 -106 179 -13 680 -13 855 0
268 20 601 66 789 111 46 10 85 18 86 17 2 -2 13 -76 25 -165 l22 -163 -22
-42 c-36 -69 -84 -138 -153 -218 -209 -242 -526 -414 -914 -497 -117 -25 -146
-27 -343 -27 -185 0 -230 3 -320 23 -232 49 -476 147 -692 277 -111 67 -348
239 -348 252 0 105 -1 559 -1 565 1 5 9 6 19 3 9 -3 78 -16 152 -30z"/>
<path d="M40845 39239 c-163 -25 -351 -87 -517 -170 -95 -48 -97 -48 -132 -34
-77 32 -173 13 -243 -49 -58 -51 -82 -104 -83 -179 0 -68 13 -103 71 -189 163
-242 520 -587 799 -772 93 -63 346 -216 354 -216 3 0 67 -28 143 -61 672 -298
1404 -363 2226 -198 109 22 216 47 238 55 53 22 123 101 139 159 31 113 -21
233 -125 288 -59 31 -134 27 -335 -15 -529 -112 -1034 -113 -1485 -2 -135 33
-345 103 -345 115 0 5 13 35 29 67 122 244 170 525 121 716 -32 125 -74 200
-165 293 -66 67 -97 89 -165 122 -47 22 -112 48 -145 57 -71 19 -293 27 -380
13z"/>
<path d="M48020 23772 c0 -12 19 -26 26 -19 2 2 -2 10 -11 17 -9 8 -15 8 -15
2z"/>
<path d="M36677 23747 c-3 -8 3 -14 16 -15 12 0 17 2 12 6 -6 4 -13 11 -16 15
-4 4 -9 2 -12 -6z"/>
<path d="M48000 23751 c0 -10 19 -25 25 -20 1 2 -3 10 -11 17 -8 7 -14 8 -14
3z"/>
<path d="M36662 23704 c-7 -8 -8 -14 -3 -14 10 0 25 19 20 25 -2 1 -10 -3 -17
-11z"/>
<path d="M48086 23648 c3 -5 10 -6 15 -3 13 9 11 12 -6 12 -8 0 -12 -4 -9 -9z"/>
<path d="M48126 23595 c-9 -26 -7 -32 5 -12 6 10 9 21 6 23 -2 3 -7 -2 -11
-11z"/>
<path d="M48080 23596 c0 -2 7 -9 15 -16 13 -11 14 -10 9 4 -5 14 -24 23 -24
12z"/>
<path d="M36612 23530 c-18 -29 -15 -38 4 -12 9 13 14 25 12 27 -2 2 -9 -5
-16 -15z"/>
<path d="M39158 23483 c6 -2 18 -2 25 0 6 3 1 5 -13 5 -14 0 -19 -2 -12 -5z"/>
<path d="M39308 23473 c7 -3 16 -2 19 1 4 3 -2 6 -13 5 -11 0 -14 -3 -6 -6z"/>
<path d="M39356 23471 c-4 -5 3 -7 14 -4 23 6 26 13 6 13 -8 0 -17 -4 -20 -9z"/>
<path d="M40268 23473 c7 -3 16 -2 19 1 4 3 -2 6 -13 5 -11 0 -14 -3 -6 -6z"/>
<path d="M40340 23470 c0 -5 5 -10 11 -10 5 0 7 5 4 10 -3 6 -8 10 -11 10 -2
0 -4 -4 -4 -10z"/>
<path d="M45388 23473 c7 -3 16 -2 19 1 4 3 -2 6 -13 5 -11 0 -14 -3 -6 -6z"/>
<path d="M39198 23463 c7 -3 16 -2 19 1 4 3 -2 6 -13 5 -11 0 -14 -3 -6 -6z"/>
<path d="M39275 23460 c3 -6 -4 -11 -17 -11 -16 -1 -18 -3 -6 -6 10 -2 25 0
34 5 15 8 15 10 0 15 -10 4 -15 3 -11 -3z"/>
<path d="M40208 23463 c7 -3 16 -2 19 1 4 3 -2 6 -13 5 -11 0 -14 -3 -6 -6z"/>
<path d="M40315 23460 c3 -5 8 -10 11 -10 2 0 4 5 4 10 0 6 -5 10 -11 10 -5 0
-7 -4 -4 -10z"/>
<path d="M44293 23463 c9 -2 23 -2 30 0 6 3 -1 5 -18 5 -16 0 -22 -2 -12 -5z"/>
<path d="M39166 23441 c-3 -4 6 -6 19 -3 14 2 25 6 25 8 0 8 -39 4 -44 -5z"/>
<path d="M45468 23443 c6 -2 18 -2 25 0 6 3 1 5 -13 5 -14 0 -19 -2 -12 -5z"/>
<path d="M48167 23426 c-3 -8 -2 -18 3 -21 13 -8 20 9 11 24 -6 10 -10 9 -14
-3z"/>
<path d="M43970 23390 c34 -11 60 -11 35 0 -11 5 -29 8 -40 8 -16 0 -15 -2 5
-8z"/>
<path d="M45318 23353 c7 -3 16 -2 19 1 4 3 -2 6 -13 5 -11 0 -14 -3 -6 -6z"/>
<path d="M45398 23353 c7 -3 16 -2 19 1 4 3 -2 6 -13 5 -11 0 -14 -3 -6 -6z"/>
<path d="M43790 23316 c4 -4 16 -4 26 2 16 9 14 10 -8 9 -15 -1 -23 -6 -18
-11z"/>
<path d="M43750 23310 c0 -5 5 -10 10 -10 6 0 10 5 10 10 0 6 -4 10 -10 10 -5
0 -10 -4 -10 -10z"/>
<path d="M40997 23299 c7 -7 15 -10 18 -7 3 3 -2 9 -12 12 -14 6 -15 5 -6 -5z"/>
<path d="M39938 23283 c7 -3 16 -2 19 1 4 3 -2 6 -13 5 -11 0 -14 -3 -6 -6z"/>
<path d="M40980 23286 c0 -2 7 -9 15 -16 9 -7 15 -8 15 -2 0 5 -7 12 -15 16
-8 3 -15 4 -15 2z"/>
<path d="M43730 23275 c-14 -8 -20 -14 -15 -14 6 0 21 6 35 14 14 8 21 14 15
14 -5 0 -21 -6 -35 -14z"/>
<path d="M39958 23263 c7 -3 16 -2 19 1 4 3 -2 6 -13 5 -11 0 -14 -3 -6 -6z"/>
<path d="M41156 23241 c-3 -5 2 -15 12 -22 15 -12 16 -12 5 2 -7 9 -10 19 -6
22 3 4 4 7 0 7 -3 0 -8 -4 -11 -9z"/>
<path d="M43528 23243 c7 -3 16 -2 19 1 4 3 -2 6 -13 5 -11 0 -14 -3 -6 -6z"/>
<path d="M43544 23215 c11 -8 14 -15 7 -15 -7 0 -9 -4 -6 -10 4 -6 11 -5 19 2
11 11 10 15 -3 25 -9 7 -20 12 -26 12 -5 0 -1 -6 9 -14z"/>
<path d="M44435 23200 c3 -5 11 -10 16 -10 6 0 7 5 4 10 -3 6 -11 10 -16 10
-6 0 -7 -4 -4 -10z"/>
<path d="M41170 23196 c0 -2 7 -7 16 -10 8 -3 12 -2 9 4 -6 10 -25 14 -25 6z"/>
<path d="M36600 23159 c0 -5 5 -7 10 -4 6 3 10 8 10 11 0 2 -4 4 -10 4 -5 0
-10 -5 -10 -11z"/>
<path d="M41330 23156 c0 -2 7 -7 16 -10 8 -3 12 -2 9 4 -6 10 -25 14 -25 6z"/>
<path d="M43398 23143 c6 -2 18 -2 25 0 6 3 1 5 -13 5 -14 0 -19 -2 -12 -5z"/>
<path d="M41290 23136 c0 -2 7 -7 16 -10 8 -3 12 -2 9 4 -6 10 -25 14 -25 6z"/>
<path d="M36590 23120 c0 -5 5 -10 11 -10 5 0 7 5 4 10 -3 6 -8 10 -11 10 -2
0 -4 -4 -4 -10z"/>
<path d="M44204 23119 c-5 -8 -3 -9 6 -4 7 4 16 2 22 -6 8 -12 9 -12 6 0 -6
20 -24 25 -34 10z"/>
<path d="M41506 23059 c3 -6 0 -16 -7 -21 -12 -8 -11 -9 1 -5 18 4 27 37 10
37 -6 0 -8 -5 -4 -11z"/>
<path d="M43283 23055 c0 -8 4 -12 9 -9 4 3 8 9 8 15 0 5 -4 9 -8 9 -5 0 -9
-7 -9 -15z"/>
<path d="M44020 23040 c-8 -5 -11 -12 -7 -17 5 -4 11 -3 15 3 4 6 14 14 22 17
13 5 13 5 0 6 -8 0 -22 -3 -30 -9z"/>
<path d="M43129 22951 c6 -10 7 -22 3 -26 -4 -5 -1 -5 6 -1 9 5 9 12 2 27 -6
10 -13 19 -16 19 -2 0 0 -8 5 -19z"/>
<path d="M40917 22943 c-3 -5 6 -9 20 -10 19 -1 22 1 12 8 -17 11 -26 11 -32
2z"/>
<path d="M41000 22922 c0 -6 10 -18 23 -27 12 -8 22 -21 22 -27 0 -6 6 -12 13
-14 7 -1 8 0 2 3 -7 3 -7 10 2 21 7 10 8 14 3 9 -5 -4 -21 5 -37 20 -15 15
-28 22 -28 15z"/>
<path d="M41728 22914 c12 -8 23 -25 23 -37 1 -18 2 -19 6 -4 5 19 -22 57 -41
57 -6 0 0 -7 12 -16z"/>
<path d="M43045 22921 c-3 -5 -2 -12 3 -15 5 -3 9 1 9 9 0 17 -3 19 -12 6z"/>
<path d="M40980 22906 c0 -11 30 -39 36 -34 2 3 -5 13 -16 23 -11 10 -20 15
-20 11z"/>
<path d="M41714 22891 c20 -22 26 -25 26 -13 0 4 -10 13 -22 21 -23 14 -23 14
-4 -8z"/>
<path d="M43744 22892 c6 -9 2 -12 -10 -10 -21 3 -27 -24 -6 -28 7 -1 8 0 2 3
-5 2 -10 9 -10 14 0 6 8 6 19 -1 15 -7 19 -7 17 5 -1 8 -6 18 -11 22 -4 4 -5
2 -1 -5z"/>
<path d="M40966 22876 c3 -8 13 -17 22 -21 13 -5 13 -2 -3 15 -21 24 -26 25
-19 6z"/>
<path d="M41710 22863 c13 -27 27 -36 35 -23 4 6 2 9 -4 8 -5 -2 -17 6 -26 17
-16 20 -16 20 -5 -2z"/>
<path d="M41767 22831 c-3 -14 0 -17 14 -14 11 3 22 9 25 14 3 5 -3 6 -12 2
-12 -4 -15 -3 -10 5 4 7 3 12 -2 12 -5 0 -12 -8 -15 -19z"/>
<path d="M41829 22833 c-1 -5 -1 -12 0 -17 1 -5 -4 -13 -11 -17 -10 -7 -9 -9
4 -9 13 0 17 7 16 25 -2 24 -7 33 -9 18z"/>
<path d="M43640 22805 c-8 -9 -8 -15 -2 -15 12 0 26 19 19 26 -2 2 -10 -2 -17
-11z"/>
<path d="M43574 22802 c4 -7 1 -12 -8 -12 -8 0 -17 -3 -19 -7 -7 -11 49 -10
59 0 5 4 0 5 -10 1 -13 -5 -17 -4 -12 4 3 6 1 14 -5 18 -8 4 -9 3 -5 -4z"/>
<path d="M43662 22784 c-7 -8 -8 -14 -3 -14 10 0 25 19 20 25 -2 1 -10 -3 -17
-11z"/>
<path d="M41832 22761 c-11 -7 -11 -9 0 -14 9 -3 15 1 15 9 0 8 -1 14 -1 14
-1 0 -7 -4 -14 -9z"/>
<path d="M42900 22760 c-8 -5 -12 -12 -9 -15 4 -3 12 1 19 10 14 17 11 19 -10
5z"/>
<path d="M48015 22759 c-4 -6 -5 -12 -2 -15 2 -3 7 2 10 11 7 17 1 20 -8 4z"/>
<path d="M41226 22719 c6 -11 31 -12 37 -1 3 4 -6 8 -19 8 -13 1 -21 -2 -18
-7z"/>
<path d="M43460 22706 c0 -2 7 -7 16 -10 8 -3 12 -2 9 4 -6 10 -25 14 -25 6z"/>
<path d="M41310 22673 c0 -13 29 -38 35 -31 3 3 -4 13 -15 23 -11 10 -20 13
-20 8z"/>
<path d="M42811 22666 c-9 -11 -9 -16 1 -22 7 -4 10 -4 6 1 -4 4 -3 14 3 22 6
7 9 13 6 13 -2 0 -10 -6 -16 -14z"/>
<path d="M41966 22633 c-6 -14 -5 -15 5 -6 7 7 10 15 7 18 -3 3 -9 -2 -12 -12z"/>
<path d="M43394 22633 c4 -25 42 -24 43 1 1 12 -1 15 -4 9 -3 -9 -10 -10 -23
-3 -14 8 -18 6 -16 -7z"/>
<path d="M41981 22616 c-9 -11 -9 -16 1 -22 7 -4 10 -4 6 1 -4 4 -3 14 3 22 6
7 9 13 6 13 -2 0 -10 -6 -16 -14z"/>
<path d="M42755 22600 c-4 -6 -11 -7 -17 -4 -7 4 -8 2 -4 -4 4 -7 2 -12 -4
-12 -6 0 -8 -5 -5 -11 5 -6 13 -3 22 10 8 12 19 18 25 15 7 -4 8 -2 4 4 -9 15
-13 15 -21 2z"/>
<path d="M43336 22601 c-4 -5 -2 -12 3 -15 5 -4 12 -2 15 3 4 5 2 12 -3 15 -5
4 -12 2 -15 -3z"/>
<path d="M41390 22593 c0 -13 29 -38 35 -31 3 3 -4 13 -15 23 -11 10 -20 13
-20 8z"/>
<path d="M42008 22593 c7 -3 16 -2 19 1 4 3 -2 6 -13 5 -11 0 -14 -3 -6 -6z"/>
<path d="M43320 22576 c0 -2 8 -10 18 -17 15 -13 16 -12 3 4 -13 16 -21 21
-21 13z"/>
<path d="M42020 22560 c0 -5 5 -10 11 -10 5 0 7 5 4 10 -3 6 -8 10 -11 10 -2
0 -4 -4 -4 -10z"/>
<path d="M41470 22521 c5 -11 15 -23 21 -27 6 -3 3 5 -6 20 -20 30 -30 35 -15
7z"/>
<path d="M42687 22515 c-4 -8 -3 -16 1 -19 4 -3 9 4 9 15 2 23 -3 25 -10 4z"/>
<path d="M41440 22516 c0 -2 8 -10 18 -17 15 -13 16 -12 3 4 -13 16 -21 21
-21 13z"/>
<path d="M43254 22472 c3 -5 0 -13 -6 -15 -9 -4 -10 -6 -1 -6 17 -1 25 16 12
25 -7 4 -9 3 -5 -4z"/>
<path d="M41526 22442 c-3 -5 1 -9 9 -9 8 0 12 4 9 9 -3 4 -7 8 -9 8 -2 0 -6
-4 -9 -8z"/>
<path d="M41525 22410 c-3 -6 1 -7 9 -4 18 7 21 14 7 14 -6 0 -13 -4 -16 -10z"/>
<path d="M42573 22392 c0 -13 0 -22 1 -20 0 2 9 12 18 23 16 20 16 21 0 21
-11 0 -18 -9 -19 -24z"/>
<path d="M42138 22403 c7 -3 16 -2 19 1 4 3 -2 6 -13 5 -11 0 -14 -3 -6 -6z"/>
<path d="M41545 22390 c-3 -6 -11 -7 -17 -4 -7 4 -8 2 -4 -5 6 -8 12 -9 20 -2
9 7 16 7 23 0 8 -8 13 -7 18 3 5 7 5 10 0 6 -4 -4 -14 -3 -21 3 -8 7 -14 7
-19 -1z"/>
<path d="M47765 22370 c-3 -6 1 -7 9 -4 18 7 21 14 7 14 -6 0 -13 -4 -16 -10z"/>
<path d="M43160 22325 c-8 -9 -8 -15 -2 -15 12 0 26 19 19 26 -2 2 -10 -2 -17
-11z"/>
<path d="M43182 22304 c-7 -8 -8 -14 -3 -14 10 0 25 19 20 25 -2 1 -10 -3 -17
-11z"/>
<path d="M41640 22283 c0 -13 29 -38 35 -31 3 3 -4 13 -15 23 -11 10 -20 13
-20 8z"/>
<path d="M41620 22266 c0 -11 30 -39 36 -34 2 3 -5 13 -16 23 -11 10 -20 15
-20 11z"/>
<path d="M42482 22235 c0 -16 2 -22 5 -12 2 9 2 23 0 30 -3 6 -5 -1 -5 -18z"/>
<path d="M41606 22236 c3 -8 13 -17 22 -21 13 -5 13 -2 -3 15 -21 24 -26 25
-19 6z"/>
<path d="M42276 22198 c3 -5 10 -6 15 -3 13 9 11 12 -6 12 -8 0 -12 -4 -9 -9z"/>
<path d="M42426 22187 c3 -10 9 -15 12 -12 3 3 0 11 -7 18 -10 9 -11 8 -5 -6z"/>
<path d="M42410 22175 c0 -5 5 -17 10 -25 5 -8 10 -10 10 -5 0 6 -5 17 -10 25
-5 8 -10 11 -10 5z"/>
<path d="M47455 22110 c-3 -5 -1 -10 4 -10 6 0 11 5 11 10 0 6 -2 10 -4 10 -3
0 -8 -4 -11 -10z"/>
<path d="M42975 22080 c3 -5 8 -10 11 -10 2 0 4 5 4 10 0 6 -5 10 -11 10 -5 0
-7 -4 -4 -10z"/>
<path d="M43000 22081 c0 -5 5 -13 10 -16 6 -3 10 -2 10 4 0 5 -4 13 -10 16
-5 3 -10 2 -10 -4z"/>
<path d="M43031 22064 c0 -11 3 -14 6 -6 3 7 2 16 -1 19 -3 4 -6 -2 -5 -13z"/>
<path d="M42379 22043 c-13 -16 -12 -17 4 -4 16 13 21 21 13 21 -2 0 -10 -8
-17 -17z"/>
<path d="M41765 22000 c-3 -6 1 -7 9 -4 18 7 21 14 7 14 -6 0 -13 -4 -16 -10z"/>
<path d="M41796 21983 c-6 -14 -5 -15 5 -6 7 7 10 15 7 18 -3 3 -9 -2 -12 -12z"/>
<path d="M42940 21981 c0 -7 -4 -10 -8 -7 -4 2 -9 -5 -9 -16 -2 -21 -2 -21 14
1 8 12 12 25 9 28 -3 4 -6 1 -6 -6z"/>
<path d="M42925 21919 c-4 -6 -5 -12 -2 -15 2 -3 7 2 10 11 7 17 1 20 -8 4z"/>
<path d="M47168 21883 c7 -3 16 -2 19 1 4 3 -2 6 -13 5 -11 0 -14 -3 -6 -6z"/>
<path d="M41866 21857 c3 -10 9 -15 12 -12 3 3 0 11 -7 18 -10 9 -11 8 -5 -6z"/>
<path d="M42866 21785 c-9 -26 -7 -32 5 -12 6 10 9 21 6 23 -2 3 -7 -2 -11
-11z"/>
<path d="M37673 21780 c2 -8 12 -16 23 -17 13 -2 15 -1 4 4 -8 3 -19 11 -23
17 -6 7 -7 6 -4 -4z"/>
<path d="M47060 21779 c0 -5 5 -7 10 -4 6 3 10 8 10 11 0 2 -4 4 -10 4 -5 0
-10 -5 -10 -11z"/>
<path d="M42861 21694 c0 -11 3 -14 6 -6 3 7 2 16 -1 19 -3 4 -6 -2 -5 -13z"/>
<path d="M46920 21700 c0 -5 5 -10 10 -10 6 0 10 5 10 10 0 6 -4 10 -10 10 -5
0 -10 -4 -10 -10z"/>
<path d="M41933 21580 c-11 -16 -10 -18 2 -14 8 4 15 12 15 20 0 19 -3 18 -17
-6z"/>
<path d="M42786 21583 c-6 -14 -5 -15 5 -6 7 7 10 15 7 18 -3 3 -9 -2 -12 -12z"/>
<path d="M42770 21488 c0 -7 5 -20 10 -28 8 -11 9 -9 8 13 -2 26 -18 40 -18
15z"/>
<path d="M38530 21326 c0 -2 7 -7 16 -10 8 -3 12 -2 9 4 -6 10 -25 14 -25 6z"/>
<path d="M42010 21214 c0 -8 5 -12 10 -9 6 4 8 11 5 16 -9 14 -15 11 -15 -7z"/>
<path d="M42012 21030 c0 -14 2 -19 5 -12 2 6 2 18 0 25 -3 6 -5 1 -5 -13z"/>
<path d="M38910 20971 c0 -6 4 -13 10 -16 6 -3 7 1 4 9 -7 18 -14 21 -14 7z"/>
<path d="M42041 20894 c0 -11 3 -14 6 -6 3 7 2 16 -1 19 -3 4 -6 -2 -5 -13z"/>
<path d="M38970 20845 c0 -5 5 -17 10 -25 5 -8 10 -10 10 -5 0 6 -5 17 -10 25
-5 8 -10 11 -10 5z"/>
<path d="M39006 20804 c-4 -9 -4 -19 -1 -22 2 -3 7 3 11 12 4 9 4 19 1 22 -2
3 -7 -3 -11 -12z"/>
<path d="M39231 19914 c0 -11 3 -14 6 -6 3 7 2 16 -1 19 -3 4 -6 -2 -5 -13z"/>
<path d="M39246 19875 c-9 -26 -7 -32 5 -12 6 10 9 21 6 23 -2 3 -7 -2 -11
-11z"/>
<path d="M45445 19809 c-4 -6 -5 -12 -2 -15 2 -3 7 2 10 11 7 17 1 20 -8 4z"/>
<path d="M45257 19243 c-4 -3 -7 -11 -7 -17 0 -6 5 -5 12 2 6 6 9 14 7 17 -3
3 -9 2 -12 -2z"/>
<path d="M39576 19055 c-9 -26 -7 -32 5 -12 6 10 9 21 6 23 -2 3 -7 -2 -11
-11z"/>
<path d="M45065 18869 c-4 -6 -5 -12 -2 -15 2 -3 7 2 10 11 7 17 1 20 -8 4z"/>
<path d="M42988 18433 c7 -3 16 -2 19 1 4 3 -2 6 -13 5 -11 0 -14 -3 -6 -6z"/>
<path d="M41708 18403 c7 -3 16 -2 19 1 4 3 -2 6 -13 5 -11 0 -14 -3 -6 -6z"/>
<path d="M43308 18353 c7 -3 16 -2 19 1 4 3 -2 6 -13 5 -11 0 -14 -3 -6 -6z"/>
<path d="M43268 18333 c6 -2 18 -2 25 0 6 3 1 5 -13 5 -14 0 -19 -2 -12 -5z"/>
<path d="M40408 18263 c7 -3 16 -2 19 1 4 3 -2 6 -13 5 -11 0 -14 -3 -6 -6z"/>
<path d="M40683 18263 c26 -2 67 -2 90 0 23 2 2 3 -48 3 -49 0 -68 -1 -42 -3z"/>
<path d="M44018 18263 c12 -2 32 -2 45 0 12 2 2 4 -23 4 -25 0 -35 -2 -22 -4z"/>
<path d="M42892 18105 c0 -16 2 -22 5 -12 2 9 2 23 0 30 -3 6 -5 -1 -5 -18z"/>
<path d="M42911 18065 c1 -19 18 -51 18 -35 0 8 -4 22 -9 30 -5 8 -9 11 -9 5z"/>
<path d="M41928 17873 c7 -3 16 -2 19 1 4 3 -2 6 -13 5 -11 0 -14 -3 -6 -6z"/>
<path d="M42870 17860 c20 -13 33 -13 25 0 -3 6 -14 10 -23 10 -15 0 -15 -2
-2 -10z"/>
<path d="M42878 17833 c6 -2 18 -2 25 0 6 3 1 5 -13 5 -14 0 -19 -2 -12 -5z"/>
<path d="M23210 62525 c-126 -26 -211 -111 -240 -239 -7 -34 -6 -81 7 -188 22
-183 25 -860 5 -1068 -111 -1137 -499 -2367 -1221 -3879 -67 -139 -150 -326
-186 -415 -401 -1011 -419 -2243 -50 -3521 137 -474 329 -961 413 -1048 113
-117 299 -129 416 -26 65 58 211 254 413 559 659 993 1121 2083 1378 3251 108
496 179 1003 217 1569 16 241 16 1010 0 1250 -62 905 -202 1716 -437 2525
-152 524 -343 1037 -421 1132 -39 47 -135 99 -199 106 -22 2 -65 -1 -95 -8z
m208 -4258 c11 -1097 -135 -2065 -457 -3037 -29 -88 -135 -380 -151 -415 -5
-11 -32 -76 -60 -145 -96 -233 -305 -671 -378 -789 -25 -42 -24 -45 -56 119
-137 701 -134 1374 9 1965 58 241 139 461 259 708 35 72 75 157 89 187 13 30
40 89 60 130 77 165 112 242 179 395 38 88 78 179 88 202 11 24 20 45 20 47 0
3 25 64 56 137 53 125 103 252 107 274 2 6 5 15 9 20 9 16 100 255 154 407 27
76 54 138 59 138 6 0 11 -123 13 -343z"/>
<path d="M63030 58097 c-153 -63 -403 -231 -650 -436 -137 -114 -490 -464
-616 -611 -534 -623 -971 -1336 -1357 -2210 -426 -967 -621 -1681 -687 -2515
-14 -183 -14 -650 0 -840 78 -1031 414 -2014 1008 -2953 53 -84 116 -183 139
-220 78 -126 165 -182 284 -182 101 0 191 45 246 123 60 85 327 709 529 1236
550 1428 884 2707 979 3741 9 91 20 374 25 630 12 604 31 938 81 1420 82 804
238 1700 415 2380 39 150 40 195 2 282 -26 62 -111 140 -174 162 -68 23 -158
20 -224 -7z m-916 -2299 c-81 -624 -134 -1397 -134 -1948 0 -390 -30 -719
-106 -1159 -78 -453 -232 -1071 -403 -1621 -12 -36 -20 -65 -20 -65 0 0 -2 -7
-5 -15 -3 -8 -35 -107 -72 -220 -119 -366 -291 -840 -304 -840 -16 0 -145 356
-214 590 -78 266 -136 566 -173 895 -22 200 -25 763 -5 955 57 540 152 945
347 1470 46 124 96 254 110 290 41 100 114 272 130 305 8 17 25 56 39 87 86
199 259 543 376 748 46 80 94 165 109 190 14 25 36 60 48 79 13 19 21 41 19
48 -3 7 -1 12 5 10 6 -1 18 12 28 28 40 71 230 345 239 345 4 0 -2 -78 -14
-172z"/>
</g>
</svg>
