<?xml version="1.0" encoding="UTF-8"?>
<!DOCTYPE svg PUBLIC "-//W3C//DTD SVG 1.1//EN" "http://www.w3.org/Graphics/SVG/1.1/DTD/svg11.dtd">
<svg xmlns="http://www.w3.org/2000/svg" version="1.1" width="512px" height="512px" style="shape-rendering:geometricPrecision; text-rendering:geometricPrecision; image-rendering:optimizeQuality; fill-rule:evenodd; clip-rule:evenodd" xmlns:xlink="http://www.w3.org/1999/xlink">
<g><path style="opacity:0.97" fill="#ea00ff" d="M 77.5,84.5 C 67.2021,95.2984 56.7021,105.965 46,116.5C 45.5357,117.094 45.369,117.761 45.5,118.5C 38.8879,106.107 41.2213,95.6071 52.5,87C 54.087,86.1376 55.7536,85.4709 57.5,85C 64.1583,84.5004 70.825,84.3337 77.5,84.5 Z"/></g>
<g><path style="opacity:0.983" fill="#e300ff" d="M 77.5,84.5 C 85.5,84.5 93.5,84.5 101.5,84.5C 88.2019,98.2985 74.7019,111.965 61,125.5C 60.5357,126.094 60.369,126.761 60.5,127.5C 54.0928,126.798 49.0928,123.798 45.5,118.5C 45.369,117.761 45.5357,117.094 46,116.5C 56.7021,105.965 67.2021,95.2984 77.5,84.5 Z"/></g>
<g><path style="opacity:0.992" fill="#dd00ff" d="M 101.5,84.5 C 108.167,84.5 114.833,84.5 121.5,84.5C 107.5,98.8333 93.5,113.167 79.5,127.5C 73.1667,127.5 66.8333,127.5 60.5,127.5C 60.369,126.761 60.5357,126.094 61,125.5C 74.7019,111.965 88.2019,98.2985 101.5,84.5 Z"/></g>
<g><path style="opacity:0.992" fill="#d700ff" d="M 121.5,84.5 C 128.167,84.5 134.833,84.5 141.5,84.5C 127.5,98.8333 113.5,113.167 99.5,127.5C 92.8333,127.5 86.1667,127.5 79.5,127.5C 93.5,113.167 107.5,98.8333 121.5,84.5 Z"/></g>
<g><path style="opacity:0.992" fill="#d100ff" d="M 141.5,84.5 C 148.167,84.5 154.833,84.5 161.5,84.5C 147.5,98.8333 133.5,113.167 119.5,127.5C 112.833,127.5 106.167,127.5 99.5,127.5C 113.5,113.167 127.5,98.8333 141.5,84.5 Z"/></g>
<g><path style="opacity:0.991" fill="#ca00ff" d="M 161.5,84.5 C 170.5,84.5 179.5,84.5 188.5,84.5C 187.391,85.29 186.058,85.79 184.5,86C 170.631,99.7015 156.965,113.535 143.5,127.5C 135.5,127.5 127.5,127.5 119.5,127.5C 133.5,113.167 147.5,98.8333 161.5,84.5 Z"/></g>
<g><path style="opacity:0.992" fill="#c400ff" d="M 188.5,84.5 C 195.167,84.5 201.833,84.5 208.5,84.5C 207.391,85.29 206.058,85.79 204.5,86C 190.631,99.7015 176.965,113.535 163.5,127.5C 156.833,127.5 150.167,127.5 143.5,127.5C 156.965,113.535 170.631,99.7015 184.5,86C 186.058,85.79 187.391,85.29 188.5,84.5 Z"/></g>
<g><path style="opacity:0.992" fill="#be00ff" d="M 208.5,84.5 C 215.167,84.5 221.833,84.5 228.5,84.5C 227.391,85.29 226.058,85.79 224.5,86C 210.631,99.7015 196.965,113.535 183.5,127.5C 176.833,127.5 170.167,127.5 163.5,127.5C 176.965,113.535 190.631,99.7015 204.5,86C 206.058,85.79 207.391,85.29 208.5,84.5 Z"/></g>
<g><path style="opacity:0.992" fill="#b800ff" d="M 228.5,84.5 C 235.167,84.5 241.833,84.5 248.5,84.5C 247.391,85.29 246.058,85.79 244.5,86C 230.631,99.7015 216.965,113.535 203.5,127.5C 196.833,127.5 190.167,127.5 183.5,127.5C 196.965,113.535 210.631,99.7015 224.5,86C 226.058,85.79 227.391,85.29 228.5,84.5 Z"/></g>
<g><path style="opacity:0.993" fill="#b200ff" d="M 248.5,84.5 C 255.167,84.5 261.833,84.5 268.5,84.5C 254.5,98.8333 240.5,113.167 226.5,127.5C 218.833,127.5 211.167,127.5 203.5,127.5C 216.965,113.535 230.631,99.7015 244.5,86C 246.058,85.79 247.391,85.29 248.5,84.5 Z"/></g>
<g><path style="opacity:0.992" fill="#ab00ff" d="M 268.5,84.5 C 275.167,84.5 281.833,84.5 288.5,84.5C 274.5,98.8333 260.5,113.167 246.5,127.5C 239.833,127.5 233.167,127.5 226.5,127.5C 240.5,113.167 254.5,98.8333 268.5,84.5 Z"/></g>
<g><path style="opacity:0.992" fill="#a500ff" d="M 288.5,84.5 C 295.167,84.5 301.833,84.5 308.5,84.5C 294.5,98.8333 280.5,113.167 266.5,127.5C 259.833,127.5 253.167,127.5 246.5,127.5C 260.5,113.167 274.5,98.8333 288.5,84.5 Z"/></g>
<g><path style="opacity:0.992" fill="#9f00ff" d="M 308.5,84.5 C 315.167,84.5 321.833,84.5 328.5,84.5C 314.5,98.8333 300.5,113.167 286.5,127.5C 279.833,127.5 273.167,127.5 266.5,127.5C 280.5,113.167 294.5,98.8333 308.5,84.5 Z"/></g>
<g><path style="opacity:0.992" fill="#9900ff" d="M 328.5,84.5 C 336.5,84.5 344.5,84.5 352.5,84.5C 338.5,98.8333 324.5,113.167 310.5,127.5C 302.5,127.5 294.5,127.5 286.5,127.5C 300.5,113.167 314.5,98.8333 328.5,84.5 Z"/></g>
<g><path style="opacity:0.992" fill="#9200ff" d="M 352.5,84.5 C 359.167,84.5 365.833,84.5 372.5,84.5C 358.5,98.8333 344.5,113.167 330.5,127.5C 323.833,127.5 317.167,127.5 310.5,127.5C 324.5,113.167 338.5,98.8333 352.5,84.5 Z"/></g>
<g><path style="opacity:0.992" fill="#8c00ff" d="M 372.5,84.5 C 379.167,84.5 385.833,84.5 392.5,84.5C 378.5,98.8333 364.5,113.167 350.5,127.5C 343.833,127.5 337.167,127.5 330.5,127.5C 344.5,113.167 358.5,98.8333 372.5,84.5 Z"/></g>
<g><path style="opacity:0.992" fill="#8600ff" d="M 392.5,84.5 C 399.167,84.5 405.833,84.5 412.5,84.5C 398.5,98.8333 384.5,113.167 370.5,127.5C 363.833,127.5 357.167,127.5 350.5,127.5C 364.5,113.167 378.5,98.8333 392.5,84.5 Z"/></g>
<g><path style="opacity:0.991" fill="#7f00ff" d="M 412.5,84.5 C 421.5,84.5 430.5,84.5 439.5,84.5C 438.391,85.29 437.058,85.79 435.5,86C 421.631,99.7015 407.965,113.535 394.5,127.5C 386.5,127.5 378.5,127.5 370.5,127.5C 384.5,113.167 398.5,98.8333 412.5,84.5 Z"/></g>
<g><path style="opacity:0.992" fill="#7900ff" d="M 439.5,84.5 C 444.895,84.2665 450.228,84.5998 455.5,85.5C 441.833,99.5 428.167,113.5 414.5,127.5C 407.833,127.5 401.167,127.5 394.5,127.5C 407.965,113.535 421.631,99.7015 435.5,86C 437.058,85.79 438.391,85.29 439.5,84.5 Z"/></g>
<g><path style="opacity:0.992" fill="#7100ff" d="M 455.5,85.5 C 469.56,93.7376 472.727,105.071 465,119.5C 462.292,123.104 458.792,125.604 454.5,127C 441.171,127.5 427.837,127.667 414.5,127.5C 428.167,113.5 441.833,99.5 455.5,85.5 Z"/></g>
<g><path style="opacity:0.955" fill="#be00ff" d="M 76.5,233.5 C 66.1667,244.5 55.5,255.167 44.5,265.5C 39.3511,254.26 41.6845,244.76 51.5,237C 53.9573,235.438 56.624,234.438 59.5,234C 65.1569,233.501 70.8236,233.334 76.5,233.5 Z"/></g>
<g><path style="opacity:0.972" fill="#b800ff" d="M 76.5,233.5 C 83.1667,233.5 89.8333,233.5 96.5,233.5C 82.8333,247.5 69.1667,261.5 55.5,275.5C 49.9226,274.22 46.2559,270.887 44.5,265.5C 55.5,255.167 66.1667,244.5 76.5,233.5 Z"/></g>
<g><path style="opacity:0.977" fill="#b200ff" d="M 96.5,233.5 C 103.167,233.5 109.833,233.5 116.5,233.5C 116.918,234.222 117.584,234.722 118.5,235C 104.833,248.667 91.1667,262.333 77.5,276C 75.9419,276.21 74.6085,276.71 73.5,277.5C 68.8215,277.666 64.1548,277.499 59.5,277C 57.9419,276.79 56.6085,276.29 55.5,275.5C 69.1667,261.5 82.8333,247.5 96.5,233.5 Z"/></g>
<g><path style="opacity:0.97" fill="#ab00ff" d="M 116.5,233.5 C 123.167,233.5 129.833,233.5 136.5,233.5C 136.918,234.222 137.584,234.722 138.5,235C 124.833,248.667 111.167,262.333 97.5,276C 95.9419,276.21 94.6085,276.71 93.5,277.5C 86.8333,277.5 80.1667,277.5 73.5,277.5C 74.6085,276.71 75.9419,276.21 77.5,276C 91.1667,262.333 104.833,248.667 118.5,235C 117.584,234.722 116.918,234.222 116.5,233.5 Z"/></g>
<g><path style="opacity:0.97" fill="#a500ff" d="M 136.5,233.5 C 143.167,233.5 149.833,233.5 156.5,233.5C 156.918,234.222 157.584,234.722 158.5,235C 144.833,248.667 131.167,262.333 117.5,276C 115.942,276.21 114.609,276.71 113.5,277.5C 106.833,277.5 100.167,277.5 93.5,277.5C 94.6085,276.71 95.9419,276.21 97.5,276C 111.167,262.333 124.833,248.667 138.5,235C 137.584,234.722 136.918,234.222 136.5,233.5 Z"/></g>
<g><path style="opacity:0.97" fill="#9f00ff" d="M 156.5,233.5 C 163.167,233.5 169.833,233.5 176.5,233.5C 176.918,234.222 177.584,234.722 178.5,235C 164.833,248.667 151.167,262.333 137.5,276C 135.942,276.21 134.609,276.71 133.5,277.5C 126.833,277.5 120.167,277.5 113.5,277.5C 114.609,276.71 115.942,276.21 117.5,276C 131.167,262.333 144.833,248.667 158.5,235C 157.584,234.722 156.918,234.222 156.5,233.5 Z"/></g>
<g><path style="opacity:0.963" fill="#9900ff" d="M 176.5,233.5 C 186.5,233.5 196.5,233.5 206.5,233.5C 205.391,234.29 204.058,234.79 202.5,235C 188.833,248.667 175.167,262.333 161.5,276C 162.416,276.278 163.082,276.778 163.5,277.5C 153.5,277.5 143.5,277.5 133.5,277.5C 134.609,276.71 135.942,276.21 137.5,276C 151.167,262.333 164.833,248.667 178.5,235C 177.584,234.722 176.918,234.222 176.5,233.5 Z"/></g>
<g><path style="opacity:0.97" fill="#9200ff" d="M 206.5,233.5 C 213.167,233.5 219.833,233.5 226.5,233.5C 225.391,234.29 224.058,234.79 222.5,235C 208.833,248.667 195.167,262.333 181.5,276C 182.416,276.278 183.082,276.778 183.5,277.5C 176.833,277.5 170.167,277.5 163.5,277.5C 163.082,276.778 162.416,276.278 161.5,276C 175.167,262.333 188.833,248.667 202.5,235C 204.058,234.79 205.391,234.29 206.5,233.5 Z"/></g>
<g><path style="opacity:0.97" fill="#8c00ff" d="M 226.5,233.5 C 233.167,233.5 239.833,233.5 246.5,233.5C 245.391,234.29 244.058,234.79 242.5,235C 228.833,248.667 215.167,262.333 201.5,276C 202.416,276.278 203.082,276.778 203.5,277.5C 196.833,277.5 190.167,277.5 183.5,277.5C 183.082,276.778 182.416,276.278 181.5,276C 195.167,262.333 208.833,248.667 222.5,235C 224.058,234.79 225.391,234.29 226.5,233.5 Z"/></g>
<g><path style="opacity:0.97" fill="#8600ff" d="M 246.5,233.5 C 253.167,233.5 259.833,233.5 266.5,233.5C 265.391,234.29 264.058,234.79 262.5,235C 248.833,248.667 235.167,262.333 221.5,276C 222.416,276.278 223.082,276.778 223.5,277.5C 216.833,277.5 210.167,277.5 203.5,277.5C 203.082,276.778 202.416,276.278 201.5,276C 215.167,262.333 228.833,248.667 242.5,235C 244.058,234.79 245.391,234.29 246.5,233.5 Z"/></g>
<g><path style="opacity:0.973" fill="#7f00ff" d="M 266.5,233.5 C 273.5,233.5 280.5,233.5 287.5,233.5C 273.167,248.167 258.833,262.833 244.5,277.5C 237.5,277.5 230.5,277.5 223.5,277.5C 223.082,276.778 222.416,276.278 221.5,276C 235.167,262.333 248.833,248.667 262.5,235C 264.058,234.79 265.391,234.29 266.5,233.5 Z"/></g>
<g><path style="opacity:0.97" fill="#7900ff" d="M 287.5,233.5 C 294.167,233.5 300.833,233.5 307.5,233.5C 293.167,248.167 278.833,262.833 264.5,277.5C 257.833,277.5 251.167,277.5 244.5,277.5C 258.833,262.833 273.167,248.167 287.5,233.5 Z"/></g>
<g><path style="opacity:0.97" fill="#7300ff" d="M 307.5,233.5 C 314.167,233.5 320.833,233.5 327.5,233.5C 313.167,248.167 298.833,262.833 284.5,277.5C 277.833,277.5 271.167,277.5 264.5,277.5C 278.833,262.833 293.167,248.167 307.5,233.5 Z"/></g>
<g><path style="opacity:0.97" fill="#6d00ff" d="M 327.5,233.5 C 334.167,233.5 340.833,233.5 347.5,233.5C 333.167,248.167 318.833,262.833 304.5,277.5C 297.833,277.5 291.167,277.5 284.5,277.5C 298.833,262.833 313.167,248.167 327.5,233.5 Z"/></g>
<g><path style="opacity:0.973" fill="#6700ff" d="M 347.5,233.5 C 354.167,233.5 360.833,233.5 367.5,233.5C 367.918,234.222 368.584,234.722 369.5,235C 355.833,248.667 342.167,262.333 328.5,276C 326.942,276.21 325.609,276.71 324.5,277.5C 317.833,277.5 311.167,277.5 304.5,277.5C 318.833,262.833 333.167,248.167 347.5,233.5 Z"/></g>
<g><path style="opacity:0.97" fill="#6000ff" d="M 367.5,233.5 C 374.167,233.5 380.833,233.5 387.5,233.5C 387.918,234.222 388.584,234.722 389.5,235C 375.833,248.667 362.167,262.333 348.5,276C 346.942,276.21 345.609,276.71 344.5,277.5C 337.833,277.5 331.167,277.5 324.5,277.5C 325.609,276.71 326.942,276.21 328.5,276C 342.167,262.333 355.833,248.667 369.5,235C 368.584,234.722 367.918,234.222 367.5,233.5 Z"/></g>
<g><path style="opacity:0.97" fill="#5a00ff" d="M 387.5,233.5 C 394.167,233.5 400.833,233.5 407.5,233.5C 407.918,234.222 408.584,234.722 409.5,235C 395.833,248.667 382.167,262.333 368.5,276C 366.942,276.21 365.609,276.71 364.5,277.5C 357.833,277.5 351.167,277.5 344.5,277.5C 345.609,276.71 346.942,276.21 348.5,276C 362.167,262.333 375.833,248.667 389.5,235C 388.584,234.722 387.918,234.222 387.5,233.5 Z"/></g>
<g><path style="opacity:0.97" fill="#5400ff" d="M 407.5,233.5 C 414.167,233.5 420.833,233.5 427.5,233.5C 427.918,234.222 428.584,234.722 429.5,235C 415.833,248.667 402.167,262.333 388.5,276C 386.942,276.21 385.609,276.71 384.5,277.5C 377.833,277.5 371.167,277.5 364.5,277.5C 365.609,276.71 366.942,276.21 368.5,276C 382.167,262.333 395.833,248.667 409.5,235C 408.584,234.722 407.918,234.222 407.5,233.5 Z"/></g>
<g><path style="opacity:0.965" fill="#4e00ff" d="M 427.5,233.5 C 435.507,233.334 443.507,233.5 451.5,234C 453.058,234.21 454.391,234.71 455.5,235.5C 454.448,235.351 453.448,235.517 452.5,236C 439.167,249.333 425.833,262.667 412.5,276C 413.416,276.278 414.082,276.778 414.5,277.5C 404.5,277.5 394.5,277.5 384.5,277.5C 385.609,276.71 386.942,276.21 388.5,276C 402.167,262.333 415.833,248.667 429.5,235C 428.584,234.722 427.918,234.222 427.5,233.5 Z"/></g>
<g><path style="opacity:0.976" fill="#4700ff" d="M 455.5,235.5 C 460.017,236.75 463.35,239.417 465.5,243.5C 454.395,254.104 443.395,264.937 432.5,276C 433.416,276.278 434.082,276.778 434.5,277.5C 427.833,277.5 421.167,277.5 414.5,277.5C 414.082,276.778 413.416,276.278 412.5,276C 425.833,262.667 439.167,249.333 452.5,236C 453.448,235.517 454.448,235.351 455.5,235.5 Z"/></g>
<g><path style="opacity:0.959" fill="#4100ff" d="M 465.5,243.5 C 472.018,255.272 470.018,265.439 459.5,274C 457.043,275.562 454.376,276.562 451.5,277C 445.843,277.499 440.176,277.666 434.5,277.5C 434.082,276.778 433.416,276.278 432.5,276C 443.395,264.937 454.395,254.104 465.5,243.5 Z"/></g>
<g><path style="opacity:0.955" fill="#9200ff" d="M 73.5,383.5 C 63.8333,393.833 53.8333,403.833 43.5,413.5C 39.2068,399.883 43.5401,390.05 56.5,384C 62.1569,383.501 67.8236,383.334 73.5,383.5 Z"/></g>
<g><path style="opacity:0.993" fill="#8c00ff" d="M 73.5,383.5 C 80.1667,383.5 86.8333,383.5 93.5,383.5C 80.4484,397.553 66.7817,410.886 52.5,423.5C 48.1053,421.438 45.1053,418.104 43.5,413.5C 53.8333,403.833 63.8333,393.833 73.5,383.5 Z"/></g>
<g><path style="opacity:0.992" fill="#8600ff" d="M 93.5,383.5 C 100.167,383.5 106.833,383.5 113.5,383.5C 99.5,397.833 85.5,412.167 71.5,426.5C 66.8215,426.666 62.1548,426.499 57.5,426C 55.5087,425.626 53.842,424.793 52.5,423.5C 66.7817,410.886 80.4484,397.553 93.5,383.5 Z"/></g>
<g><path style="opacity:0.991" fill="#7f00ff" d="M 113.5,383.5 C 121.5,383.5 129.5,383.5 137.5,383.5C 124.035,397.465 110.369,411.299 96.5,425C 97.4158,425.278 98.0825,425.778 98.5,426.5C 89.5,426.5 80.5,426.5 71.5,426.5C 85.5,412.167 99.5,397.833 113.5,383.5 Z"/></g>
<g><path style="opacity:0.992" fill="#7900ff" d="M 137.5,383.5 C 144.167,383.5 150.833,383.5 157.5,383.5C 144.035,397.465 130.369,411.299 116.5,425C 117.416,425.278 118.082,425.778 118.5,426.5C 111.833,426.5 105.167,426.5 98.5,426.5C 98.0825,425.778 97.4158,425.278 96.5,425C 110.369,411.299 124.035,397.465 137.5,383.5 Z"/></g>
<g><path style="opacity:0.992" fill="#7300ff" d="M 157.5,383.5 C 164.167,383.5 170.833,383.5 177.5,383.5C 164.035,397.465 150.369,411.299 136.5,425C 137.416,425.278 138.082,425.778 138.5,426.5C 131.833,426.5 125.167,426.5 118.5,426.5C 118.082,425.778 117.416,425.278 116.5,425C 130.369,411.299 144.035,397.465 157.5,383.5 Z"/></g>
<g><path style="opacity:0.992" fill="#6d00ff" d="M 177.5,383.5 C 184.167,383.5 190.833,383.5 197.5,383.5C 184.035,397.465 170.369,411.299 156.5,425C 157.416,425.278 158.082,425.778 158.5,426.5C 151.833,426.5 145.167,426.5 138.5,426.5C 138.082,425.778 137.416,425.278 136.5,425C 150.369,411.299 164.035,397.465 177.5,383.5 Z"/></g>
<g><path style="opacity:0.993" fill="#6700ff" d="M 197.5,383.5 C 205.167,383.5 212.833,383.5 220.5,383.5C 206.5,397.833 192.5,412.167 178.5,426.5C 171.833,426.5 165.167,426.5 158.5,426.5C 158.082,425.778 157.416,425.278 156.5,425C 170.369,411.299 184.035,397.465 197.5,383.5 Z"/></g>
<g><path style="opacity:0.992" fill="#6000ff" d="M 220.5,383.5 C 227.167,383.5 233.833,383.5 240.5,383.5C 226.5,397.833 212.5,412.167 198.5,426.5C 191.833,426.5 185.167,426.5 178.5,426.5C 192.5,412.167 206.5,397.833 220.5,383.5 Z"/></g>
<g><path style="opacity:0.992" fill="#5a00ff" d="M 240.5,383.5 C 247.167,383.5 253.833,383.5 260.5,383.5C 246.5,397.833 232.5,412.167 218.5,426.5C 211.833,426.5 205.167,426.5 198.5,426.5C 212.5,412.167 226.5,397.833 240.5,383.5 Z"/></g>
<g><path style="opacity:0.992" fill="#5400ff" d="M 260.5,383.5 C 267.167,383.5 273.833,383.5 280.5,383.5C 266.5,397.833 252.5,412.167 238.5,426.5C 231.833,426.5 225.167,426.5 218.5,426.5C 232.5,412.167 246.5,397.833 260.5,383.5 Z"/></g>
<g><path style="opacity:0.992" fill="#4e00ff" d="M 280.5,383.5 C 288.5,383.5 296.5,383.5 304.5,383.5C 290.5,397.833 276.5,412.167 262.5,426.5C 254.5,426.5 246.5,426.5 238.5,426.5C 252.5,412.167 266.5,397.833 280.5,383.5 Z"/></g>
<g><path style="opacity:0.992" fill="#4700ff" d="M 304.5,383.5 C 311.167,383.5 317.833,383.5 324.5,383.5C 310.5,397.833 296.5,412.167 282.5,426.5C 275.833,426.5 269.167,426.5 262.5,426.5C 276.5,412.167 290.5,397.833 304.5,383.5 Z"/></g>
<g><path style="opacity:0.992" fill="#4100ff" d="M 324.5,383.5 C 331.167,383.5 337.833,383.5 344.5,383.5C 330.5,397.833 316.5,412.167 302.5,426.5C 295.833,426.5 289.167,426.5 282.5,426.5C 296.5,412.167 310.5,397.833 324.5,383.5 Z"/></g>
<g><path style="opacity:0.992" fill="#3b00ff" d="M 344.5,383.5 C 351.167,383.5 357.833,383.5 364.5,383.5C 350.5,397.833 336.5,412.167 322.5,426.5C 315.833,426.5 309.167,426.5 302.5,426.5C 316.5,412.167 330.5,397.833 344.5,383.5 Z"/></g>
<g><path style="opacity:0.991" fill="#3400ff" d="M 364.5,383.5 C 372.5,383.5 380.5,383.5 388.5,383.5C 375.035,397.465 361.369,411.299 347.5,425C 348.416,425.278 349.082,425.778 349.5,426.5C 340.5,426.5 331.5,426.5 322.5,426.5C 336.5,412.167 350.5,397.833 364.5,383.5 Z"/></g>
<g><path style="opacity:0.992" fill="#2e00ff" d="M 388.5,383.5 C 395.167,383.5 401.833,383.5 408.5,383.5C 395.035,397.465 381.369,411.299 367.5,425C 368.416,425.278 369.082,425.778 369.5,426.5C 362.833,426.5 356.167,426.5 349.5,426.5C 349.082,425.778 348.416,425.278 347.5,425C 361.369,411.299 375.035,397.465 388.5,383.5 Z"/></g>
<g><path style="opacity:0.992" fill="#2800ff" d="M 408.5,383.5 C 415.167,383.5 421.833,383.5 428.5,383.5C 415.035,397.465 401.369,411.299 387.5,425C 388.416,425.278 389.082,425.778 389.5,426.5C 382.833,426.5 376.167,426.5 369.5,426.5C 369.082,425.778 368.416,425.278 367.5,425C 381.369,411.299 395.035,397.465 408.5,383.5 Z"/></g>
<g><path style="opacity:0.992" fill="#2200ff" d="M 428.5,383.5 C 435.167,383.5 441.833,383.5 448.5,383.5C 435.035,397.465 421.369,411.299 407.5,425C 408.416,425.278 409.082,425.778 409.5,426.5C 402.833,426.5 396.167,426.5 389.5,426.5C 389.082,425.778 388.416,425.278 387.5,425C 401.369,411.299 415.035,397.465 428.5,383.5 Z"/></g>
<g><path style="opacity:0.985" fill="#1c00ff" d="M 448.5,383.5 C 455.203,383.518 460.536,386.185 464.5,391.5C 452.5,402.833 440.833,414.5 429.5,426.5C 422.833,426.5 416.167,426.5 409.5,426.5C 409.082,425.778 408.416,425.278 407.5,425C 421.369,411.299 435.035,397.465 448.5,383.5 Z"/></g>
<g><path style="opacity:0.978" fill="#1500ff" d="M 464.5,391.5 C 470.973,400.209 471.14,409.209 465,418.5C 461.731,421.883 457.897,424.383 453.5,426C 445.507,426.5 437.507,426.666 429.5,426.5C 440.833,414.5 452.5,402.833 464.5,391.5 Z"/></g>
</svg>
